<svg width="46" height="46" viewBox="0 0 46 46" fill="none" xmlns="http://www.w3.org/2000/svg">
<g id="envelope-heart-fill 1">
<path id="Vector" d="M0.14375 10.2206C0.433602 8.95057 1.14613 7.81659 2.16465 7.00439C3.18317 6.19219 4.44729 5.74991 5.75 5.75H40.25C41.5527 5.74991 42.8168 6.19219 43.8354 7.00439C44.8539 7.81659 45.5664 8.95057 45.8563 10.2206L33.7812 17.6036C33.7345 17.502 33.6856 17.4013 33.6346 17.3018C31.7199 13.5643 26.841 11.7904 23 13.708C19.159 11.7904 14.2801 13.5643 12.3654 17.3018L12.2216 17.6036L0.14375 10.2206ZM33.304 25.6163C33.2363 25.7506 33.1663 25.8838 33.0941 26.0159L46 33.925V13.5039L34.4914 20.539C34.569 22.1548 34.1838 23.8826 33.304 25.6191V25.6163ZM21.4159 34.385C18.4029 32.3926 16.1259 30.3888 14.5216 28.3993L0.54625 36.961C1.01274 37.9461 1.74958 38.7782 2.6709 39.3605C3.59223 39.9429 4.66008 40.2513 5.75 40.25H40.25C41.3389 40.2502 42.4056 39.9413 43.3258 39.359C44.246 38.7768 44.9819 37.9452 45.448 36.961L31.4812 28.3993C29.8741 30.3888 27.6 32.3926 24.587 34.3821L23 35.4315L21.4159 34.3821V34.385ZM12.696 25.6163C11.8162 23.8826 11.431 22.1548 11.5086 20.539L0 13.5039V33.9279L12.9087 26.0159C12.8357 25.8848 12.7647 25.7525 12.696 25.6191V25.6163Z" fill="#FCFCFC"/>
<path id="Vector_2" d="M23 17.23C27.784 12.3108 39.7469 20.9186 23 31.9845C6.25311 20.9157 18.216 12.3108 23 17.23Z" fill="#FCFCFC"/>
</g>
</svg>
