<svg width="74" height="74" viewBox="0 0 74 74" fill="none" xmlns="http://www.w3.org/2000/svg">
<path d="M0.493164 12.2498C0.493164 5.88548 5.65245 0.726196 12.0167 0.726196H62.1444C68.5087 0.726196 73.6679 5.88548 73.6679 12.2498V62.3774C73.6679 68.7417 68.5087 73.901 62.1443 73.901H12.0167C5.65244 73.901 0.493164 68.7417 0.493164 62.3774V12.2498Z" fill="#FF477E"/>
<path d="M48.1711 30.3848L40.1676 22.3813C39.9389 22.1527 39.7102 22.0383 39.3672 22.0383H27.9337C26.676 22.0383 25.647 23.0674 25.647 24.325V51.7656C25.647 53.0233 26.676 54.0523 27.9337 54.0523H46.2274C47.4851 54.0523 48.5141 53.0233 48.5141 51.7656V31.1852C48.5141 30.8422 48.3997 30.6135 48.1711 30.3848ZM39.3672 24.7824L45.77 31.1852H39.3672V24.7824ZM46.2274 51.7656H27.9337V24.325H37.0805V31.1852C37.0805 32.4429 38.1095 33.4719 39.3672 33.4719H46.2274V51.7656Z" fill="#FCFCFC"/>
<path d="M30.2207 44.9054H43.941V47.1921H30.2207V44.9054ZM30.2207 38.0453H43.941V40.332H30.2207V38.0453Z" fill="#FCFCFC"/>
</svg>
