<svg width="84" height="76" viewBox="0 0 84 76" fill="none" xmlns="http://www.w3.org/2000/svg">
<rect width="84" height="76" rx="11" fill="#FF477E"/>
<path d="M24.1875 56.125C23.8063 56.125 23.4406 55.9735 23.171 55.704C22.9015 55.4344 22.75 55.0687 22.75 54.6875C22.75 54.3063 22.9015 53.9406 23.171 53.671C23.4406 53.4015 23.8063 53.25 24.1875 53.25H27.0625V50.375C27.0619 47.934 27.7519 45.5427 29.0527 43.4772C30.3536 41.4118 32.2122 39.7565 34.4139 38.7025C35.2476 38.3029 35.6875 37.6186 35.6875 37.0063V34.9937C35.6875 34.3814 35.2448 33.6971 34.4139 33.2975C32.2122 32.2435 30.3536 30.5882 29.0527 28.5228C27.7519 26.4573 27.0619 24.066 27.0625 21.625V18.75H24.1875C23.8063 18.75 23.4406 18.5985 23.171 18.329C22.9015 18.0594 22.75 17.6937 22.75 17.3125C22.75 16.9313 22.9015 16.5656 23.171 16.296C23.4406 16.0265 23.8063 15.875 24.1875 15.875H55.8125C56.1937 15.875 56.5594 16.0265 56.829 16.296C57.0985 16.5656 57.25 16.9313 57.25 17.3125C57.25 17.6937 57.0985 18.0594 56.829 18.329C56.5594 18.5985 56.1937 18.75 55.8125 18.75H52.9375V21.625C52.9381 24.066 52.2481 26.4573 50.9473 28.5228C49.6464 30.5882 47.7878 32.2435 45.5861 33.2975C44.7524 33.6971 44.3125 34.3814 44.3125 34.9937V37.0063C44.3125 37.6186 44.7552 38.3029 45.5861 38.7025C47.7878 39.7565 49.6464 41.4118 50.9473 43.4772C52.2481 45.5427 52.9381 47.934 52.9375 50.375V53.25H55.8125C56.1937 53.25 56.5594 53.4015 56.829 53.671C57.0985 53.9406 57.25 54.3063 57.25 54.6875C57.25 55.0687 57.0985 55.4344 56.829 55.704C56.5594 55.9735 56.1937 56.125 55.8125 56.125H24.1875ZM29.9375 18.75V21.625C29.9375 23.1689 30.2825 24.6294 30.9064 25.9375H49.0936C49.7146 24.6294 50.0625 23.1689 50.0625 21.625V18.75H29.9375ZM38.5625 37.0063C38.5625 39.0216 37.1882 40.5597 35.6559 41.2957C33.9432 42.1154 32.4974 43.403 31.4855 45.0096C30.4737 46.6162 29.937 48.4763 29.9375 50.375C29.9375 50.375 32.4272 46.6404 38.5625 46.12V37.0063ZM41.4375 37.0063V46.12C47.5728 46.6404 50.0625 50.375 50.0625 50.375C50.063 48.4763 49.5263 46.6162 48.5145 45.0096C47.5026 43.403 46.0568 42.1154 44.3441 41.2957C42.8117 40.5597 41.4375 39.0216 41.4375 37.0063Z" fill="#FCFCFC"/>
</svg>
