<svg width="84" height="76" viewBox="0 0 84 76" fill="none" xmlns="http://www.w3.org/2000/svg">
<rect width="84" height="76" rx="11" fill="#FF477E"/>
<path d="M33.375 38C33.375 33.2361 40.1111 29.375 44.875 29.375V26.5C41.825 26.5 38.8999 27.7116 36.7433 29.8683C34.5866 32.0249 33.375 34.95 33.375 38Z" fill="#FCFCFC"/>
<path d="M54.4142 23.625H60.2074C62.8524 23.625 65 25.7698 65 28.4176V47.5824C65 50.2274 62.8553 52.375 60.2074 52.375H54.4142C51.5887 54.2555 48.2691 55.2559 44.875 55.25C41.481 55.2556 38.1614 54.2551 35.3358 52.375H23.7926C21.1476 52.375 19 50.2303 19 47.5824V28.4176C19 25.7726 21.1447 23.625 23.7926 23.625H24.75C24.75 22.8625 25.0529 22.1313 25.5921 21.5921C26.1312 21.0529 26.8625 20.75 27.625 20.75H30.5C31.2625 20.75 31.9938 21.0529 32.5329 21.5921C33.0721 22.1313 33.375 22.8625 33.375 23.625H35.3358C38.1613 21.7446 41.4809 20.7441 44.875 20.75C48.4026 20.75 51.6801 21.808 54.4142 23.625ZM24.75 27.9375C24.75 27.5563 24.5985 27.1906 24.329 26.9211C24.0594 26.6515 23.6937 26.5 23.3125 26.5C22.9313 26.5 22.5656 26.6515 22.296 26.9211C22.0265 27.1906 21.875 27.5563 21.875 27.9375C21.875 28.3188 22.0265 28.6844 22.296 28.954C22.5656 29.2236 22.9313 29.375 23.3125 29.375C23.6937 29.375 24.0594 29.2236 24.329 28.954C24.5985 28.6844 24.75 28.3188 24.75 27.9375ZM59.25 38C59.25 34.1875 57.7355 30.5312 55.0397 27.8354C52.3438 25.1395 48.6875 23.625 44.875 23.625C41.0625 23.625 37.4062 25.1395 34.7103 27.8354C32.0145 30.5312 30.5 34.1875 30.5 38C30.5 41.8125 32.0145 45.4688 34.7103 48.1647C37.4062 50.8605 41.0625 52.375 44.875 52.375C48.6875 52.375 52.3438 50.8605 55.0397 48.1647C57.7355 45.4688 59.25 41.8125 59.25 38Z" fill="#FCFCFC"/>
</svg>
