<svg width="84" height="76" viewBox="0 0 84 76" fill="none" xmlns="http://www.w3.org/2000/svg">
<rect width="84" height="76" rx="11" fill="#FF477E"/>
<path d="M19.1437 25.2206C19.4336 23.9506 20.1461 22.8166 21.1646 22.0044C22.1832 21.1922 23.4473 20.7499 24.75 20.75H59.25C60.5527 20.7499 61.8168 21.1922 62.8354 22.0044C63.8539 22.8166 64.5664 23.9506 64.8563 25.2206L52.7812 32.6036C52.7345 32.502 52.6856 32.4013 52.6346 32.3018C50.7199 28.5643 45.841 26.7904 42 28.708C38.159 26.7904 33.2801 28.5643 31.3654 32.3018L31.2216 32.6036L19.1437 25.2206ZM52.304 40.6163C52.2363 40.7506 52.1663 40.8838 52.0941 41.0159L65 48.925V28.5039L53.4914 35.539C53.569 37.1548 53.1838 38.8826 52.304 40.6191V40.6163ZM40.4159 49.385C37.4029 47.3926 35.1259 45.3888 33.5216 43.3993L19.5462 51.961C20.0127 52.9461 20.7496 53.7782 21.6709 54.3605C22.5922 54.9429 23.6601 55.2513 24.75 55.25H59.25C60.3389 55.2502 61.4056 54.9413 62.3258 54.359C63.246 53.7768 63.9819 52.9452 64.448 51.961L50.4812 43.3993C48.8741 45.3888 46.6 47.3926 43.587 49.3821L42 50.4315L40.4159 49.3821V49.385ZM31.696 40.6163C30.8162 38.8826 30.431 37.1548 30.5086 35.539L19 28.5039V48.9279L31.9087 41.0159C31.8357 40.8848 31.7647 40.7525 31.696 40.6191V40.6163Z" fill="#FCFCFC"/>
<path d="M42 32.23C46.784 27.3108 58.7469 35.9186 42 46.9845C25.2531 35.9157 37.216 27.3108 42 32.23Z" fill="#FCFCFC"/>
</svg>
