<svg width="37" height="37" viewBox="0 0 37 37" fill="none" xmlns="http://www.w3.org/2000/svg">
<g clip-path="url(#clip0_7_416)">
<path fill-rule="evenodd" clip-rule="evenodd" d="M4.86712 4.86725C4.86712 3.6543 5.34897 2.49103 6.20665 1.63335C7.06433 0.775665 8.2276 0.293823 9.44055 0.293823L27.7342 0.293823C28.9472 0.293823 30.1105 0.775665 30.9681 1.63335C31.8258 2.49103 32.3077 3.6543 32.3077 4.86725V7.45809L34.4595 8.60602C35.191 8.99609 35.8028 9.57769 36.2293 10.2886C36.6559 10.9995 36.8812 11.813 36.8811 12.6421V32.3078C36.8811 33.5207 36.3992 34.684 35.5416 35.5417C34.6839 36.3994 33.5206 36.8812 32.3077 36.8812H4.86712C3.65418 36.8812 2.49091 36.3994 1.63323 35.5417C0.775543 34.684 0.293701 33.5207 0.293701 32.3078V12.6421C0.293618 11.813 0.518898 10.9995 0.945446 10.2886C1.37199 9.57769 1.98377 8.99609 2.71533 8.60602L4.86712 7.45809V4.86725ZM4.86712 10.0512L3.79237 10.6229C3.4262 10.8179 3.11997 11.1088 2.90648 11.4645C2.69299 11.8202 2.58027 12.2272 2.58041 12.6421V14.5103L4.86712 15.8823V10.0512ZM7.15384 17.2544L15.729 22.3995L18.5874 20.6844L21.4458 22.3995L30.021 17.2544V4.86725C30.021 4.26077 29.78 3.67914 29.3512 3.2503C28.9223 2.82146 28.3407 2.58053 27.7342 2.58053H9.44055C8.83407 2.58053 8.25244 2.82146 7.8236 3.2503C7.39476 3.67914 7.15384 4.26077 7.15384 4.86725V17.2544ZM32.3077 15.8823L34.5944 14.5103V12.6421C34.5941 12.2276 34.4812 11.821 34.2677 11.4658C34.0542 11.1105 33.7482 10.82 33.3824 10.6252L32.3077 10.0512V15.8823ZM18.5874 7.1128C22.3925 3.28713 31.9075 9.98033 18.5874 18.5875C5.2673 9.98033 14.7823 3.28942 18.5874 7.1128ZM34.5944 17.1766L23.6685 23.7326L34.5944 30.2886V17.1766ZM34.5143 32.9092L18.5874 23.3484L2.66045 32.9069C2.79199 33.3914 3.07934 33.8192 3.47815 34.1242C3.87696 34.4292 4.36506 34.5945 4.86712 34.5945H32.3077C32.8097 34.5945 33.2978 34.4292 33.6966 34.1242C34.0954 33.8192 34.3828 33.3914 34.5143 32.9069V32.9092ZM2.58041 30.2863L13.5063 23.7303L2.58041 17.1766V30.2886V30.2863Z" fill="#FCFCFC"/>
</g>
<defs>
<clipPath id="clip0_7_416">
<rect width="36.5874" height="36.5874" fill="white" transform="translate(0.293701 0.293823)"/>
</clipPath>
</defs>
</svg>
