<svg width="84" height="76" viewBox="0 0 84 76" fill="none" xmlns="http://www.w3.org/2000/svg">
<rect width="84" height="76" rx="11" fill="#FF477E"/>
<path fill-rule="evenodd" clip-rule="evenodd" d="M27.5244 51.4981C27.5646 51.0772 27.5116 50.6526 27.369 50.2546C27.2263 49.8565 26.9977 49.4948 26.6992 49.1953C23.6518 46.1363 21.875 42.2205 21.875 38C21.875 28.823 30.5115 20.75 42 20.75C53.4885 20.75 62.125 28.823 62.125 38C62.125 47.1799 53.4885 55.25 42 55.25C39.9734 55.253 37.9552 54.99 35.997 54.468C35.3127 54.2846 34.5848 54.3604 33.9529 54.6808C32.8403 55.2443 30.3879 56.3195 26.3801 57.2481C26.9392 55.3711 27.3223 53.4462 27.5244 51.4981ZM25.2244 60.4336L25.2819 60.4221C30.5431 59.3785 33.7574 58.0014 35.2524 57.2453C37.4534 57.8323 39.722 58.1281 42 58.125C54.7018 58.125 65 49.1148 65 38C65 26.8853 54.7018 17.875 42 17.875C29.2982 17.875 19 26.8853 19 38C19 43.06 21.1361 47.6888 24.6638 51.225C24.417 53.4965 23.9115 55.7324 23.1572 57.8893L23.1486 57.9209C22.9343 58.5386 22.7003 59.1494 22.4471 59.7523C22.22 60.287 22.6599 60.885 23.232 60.793C23.898 60.684 24.5622 60.5642 25.2244 60.4336ZM42 32.2299C46.784 27.3108 58.7469 35.9185 42 46.9844C25.2531 35.9156 37.216 27.3108 42 32.2299Z" fill="#FCFCFC"/>
</svg>
