<svg width="74" height="74" viewBox="0 0 74 74" fill="none" xmlns="http://www.w3.org/2000/svg">
<path d="M0.69043 11.5236C0.69043 5.15928 5.84971 0 12.214 0H62.3416C68.7059 0 73.8652 5.15928 73.8652 11.5236V61.6512C73.8652 68.0155 68.7059 73.1748 62.3416 73.1748H12.214C5.84971 73.1748 0.69043 68.0155 0.69043 61.6512V11.5236Z" fill="#FF477E"/>
<path d="M47.5682 29.956V23.1531C47.5678 22.7742 47.4171 22.4109 47.1491 22.143C46.8812 21.875 46.5179 21.7243 46.139 21.7239H28.417C28.0381 21.7243 27.6748 21.875 27.4069 22.143C27.139 22.4109 26.9883 22.7742 26.9878 23.1531V29.956L20.1277 34.8557V53.7378H54.4284V34.8557L47.5682 29.956ZM51.4041 35.5061L47.5682 38.0138V32.7658L51.4041 35.5061ZM29.2745 24.0106H45.2815V39.509L41.1964 42.18L37.868 40.4541L34.2404 42.2054L29.2745 39.1904V24.0106ZM37.8314 43.011L52.1416 50.4312V51.4511H22.4144V50.4538L37.8314 43.011ZM22.4144 37.7005L31.7859 43.3905L22.4144 47.9145V37.7005ZM43.5269 43.3887L52.1416 37.7556V47.8553L43.5269 43.3887ZM26.9878 32.7658V37.8023L23.1766 35.4881L26.9878 32.7658Z" fill="#FCFCFC"/>
</svg>
