<svg width="84" height="76" viewBox="0 0 84 76" fill="none" xmlns="http://www.w3.org/2000/svg">
<rect width="84" height="76" rx="11" fill="#FF477E"/>
<g clip-path="url(#clip0_50_56)">
<path fill-rule="evenodd" clip-rule="evenodd" d="M30.5 16.4375C30.5 16.0563 30.3485 15.6906 30.079 15.421C29.8094 15.1515 29.4437 15 29.0625 15C28.6813 15 28.3156 15.1515 28.046 15.421C27.7765 15.6906 27.625 16.0563 27.625 16.4375V17.875H24.75C23.225 17.875 21.7625 18.4808 20.6841 19.5591C19.6058 20.6375 19 22.1 19 23.625V55.25C19 56.775 19.6058 58.2375 20.6841 59.3159C21.7625 60.3942 23.225 61 24.75 61H59.25C60.775 61 62.2375 60.3942 63.3159 59.3159C64.3942 58.2375 65 56.775 65 55.25V23.625C65 22.1 64.3942 20.6375 63.3159 19.5591C62.2375 18.4808 60.775 17.875 59.25 17.875H56.375V16.4375C56.375 16.0563 56.2235 15.6906 55.954 15.421C55.6844 15.1515 55.3187 15 54.9375 15C54.5563 15 54.1906 15.1515 53.921 15.421C53.6515 15.6906 53.5 16.0563 53.5 16.4375V17.875H30.5V16.4375ZM21.875 55.25V26.5H62.125V55.25C62.125 56.0125 61.8221 56.7438 61.2829 57.2829C60.7438 57.8221 60.0125 58.125 59.25 58.125H24.75C23.9875 58.125 23.2562 57.8221 22.7171 57.2829C22.1779 56.7438 21.875 56.0125 21.875 55.25ZM42 36.5424C46.784 31.6233 58.7469 40.231 42 51.2969C25.2531 40.2281 37.216 31.6233 42 36.5424Z" fill="#FCFCFC"/>
</g>
<defs>
<clipPath id="clip0_50_56">
<rect width="46" height="46" fill="white" transform="translate(19 15)"/>
</clipPath>
</defs>
</svg>
