<svg width="84" height="76" viewBox="0 0 84 76" fill="none" xmlns="http://www.w3.org/2000/svg">
<rect width="84" height="76" rx="11" fill="#FF477E"/>
<path d="M19 26.5C19 24.975 19.6058 23.5125 20.6841 22.4341C21.7625 21.3558 23.225 20.75 24.75 20.75H59.25C60.775 20.75 62.2375 21.3558 63.3159 22.4341C64.3942 23.5125 65 24.975 65 26.5V49.5C65 51.025 64.3942 52.4875 63.3159 53.5659C62.2375 54.6442 60.775 55.25 59.25 55.25H24.75C23.225 55.25 21.7625 54.6442 20.6841 53.5659C19.6058 52.4875 19 51.025 19 49.5V26.5ZM44.875 30.8125C44.875 31.1937 45.0264 31.5594 45.296 31.829C45.5656 32.0985 45.9313 32.25 46.3125 32.25H57.8125C58.1937 32.25 58.5594 32.0985 58.829 31.829C59.0985 31.5594 59.25 31.1937 59.25 30.8125C59.25 30.4313 59.0985 30.0656 58.829 29.796C58.5594 29.5265 58.1937 29.375 57.8125 29.375H46.3125C45.9313 29.375 45.5656 29.5265 45.296 29.796C45.0264 30.0656 44.875 30.4313 44.875 30.8125ZM44.875 38C44.875 38.3812 45.0264 38.7469 45.296 39.0165C45.5656 39.2861 45.9313 39.4375 46.3125 39.4375H57.8125C58.1937 39.4375 58.5594 39.2861 58.829 39.0165C59.0985 38.7469 59.25 38.3812 59.25 38C59.25 37.6188 59.0985 37.2531 58.829 36.9835C58.5594 36.714 58.1937 36.5625 57.8125 36.5625H46.3125C45.9313 36.5625 45.5656 36.714 45.296 36.9835C45.0264 37.2531 44.875 37.6188 44.875 38ZM47.75 45.1875C47.75 45.5687 47.9014 45.9344 48.171 46.204C48.4406 46.4736 48.8063 46.625 49.1875 46.625H57.8125C58.1937 46.625 58.5594 46.4736 58.829 46.204C59.0985 45.9344 59.25 45.5687 59.25 45.1875C59.25 44.8063 59.0985 44.4406 58.829 44.171C58.5594 43.9014 58.1937 43.75 57.8125 43.75H49.1875C48.8063 43.75 48.4406 43.9014 48.171 44.171C47.9014 44.4406 47.75 44.8063 47.75 45.1875ZM44.875 50.9375C44.875 45.3801 39.7288 40.875 33.375 40.875C27.3778 40.875 22.45 44.8942 21.921 50.0204C22.0427 50.6818 22.3924 51.2795 22.9093 51.7097C23.4262 52.1399 24.0775 52.3753 24.75 52.375H44.76C44.8347 51.9064 44.875 51.4263 44.875 50.9375ZM39.125 32.25C39.125 30.725 38.5192 29.2625 37.4409 28.1841C36.3625 27.1058 34.9 26.5 33.375 26.5C31.85 26.5 30.3875 27.1058 29.3091 28.1841C28.2308 29.2625 27.625 30.725 27.625 32.25C27.625 33.775 28.2308 35.2375 29.3091 36.3159C30.3875 37.3942 31.85 38 33.375 38C34.9 38 36.3625 37.3942 37.4409 36.3159C38.5192 35.2375 39.125 33.775 39.125 32.25Z" fill="#FCFCFC"/>
</svg>
