<svg width="74" height="74" viewBox="0 0 74 74" fill="none" xmlns="http://www.w3.org/2000/svg">
<path d="M0 11.5236C0 5.15928 5.15928 0 11.5236 0H61.6512C68.0155 0 73.1748 5.15928 73.1748 11.5236V61.6512C73.1748 68.0155 68.0155 73.1748 61.6512 73.1748H11.5236C5.15928 73.1748 0 68.0155 0 61.6512V11.5236Z" fill="#FF477E"/>
<g clip-path="url(#clip0_268_50)">
<path d="M51.125 17H21.875C20.5821 17 19.3421 17.5136 18.4279 18.4279C17.5136 19.3421 17 20.5821 17 21.875V51.125C17 52.4179 17.5136 53.6579 18.4279 54.5721C19.3421 55.4864 20.5821 56 21.875 56H51.125C52.4179 56 53.6579 55.4864 54.5721 54.5721C55.4864 53.6579 56 52.4179 56 51.125V21.875C56 20.5821 55.4864 19.3421 54.5721 18.4279C53.6579 17.5136 52.4179 17 51.125 17ZM19.4375 26.4014C19.4375 25.2485 20.5295 24.3125 21.875 24.3125H51.125C52.4705 24.3125 53.5625 25.2485 53.5625 26.4014V51.4736C53.5625 52.6265 52.4705 53.5625 51.125 53.5625H21.875C20.5295 53.5625 19.4375 52.6265 19.4375 51.4736V26.4014Z" fill="white"/>
<path d="M32.8438 34.0625C33.4902 34.0625 34.1102 33.8057 34.5673 33.3486C35.0244 32.8915 35.2812 32.2715 35.2812 31.625C35.2812 30.9785 35.0244 30.3585 34.5673 29.9014C34.1102 29.4443 33.4902 29.1875 32.8438 29.1875C32.1973 29.1875 31.5773 29.4443 31.1202 29.9014C30.6631 30.3585 30.4062 30.9785 30.4062 31.625C30.4062 32.2715 30.6631 32.8915 31.1202 33.3486C31.5773 33.8057 32.1973 34.0625 32.8438 34.0625ZM40.1562 34.0625C40.8027 34.0625 41.4227 33.8057 41.8798 33.3486C42.3369 32.8915 42.5938 32.2715 42.5938 31.625C42.5938 30.9785 42.3369 30.3585 41.8798 29.9014C41.4227 29.4443 40.8027 29.1875 40.1562 29.1875C39.5098 29.1875 38.8898 29.4443 38.4327 29.9014C37.9756 30.3585 37.7188 30.9785 37.7188 31.625C37.7188 32.2715 37.9756 32.8915 38.4327 33.3486C38.8898 33.8057 39.5098 34.0625 40.1562 34.0625ZM47.4688 34.0625C48.1152 34.0625 48.7352 33.8057 49.1923 33.3486C49.6494 32.8915 49.9062 32.2715 49.9062 31.625C49.9062 30.9785 49.6494 30.3585 49.1923 29.9014C48.7352 29.4443 48.1152 29.1875 47.4688 29.1875C46.8223 29.1875 46.2023 29.4443 45.7452 29.9014C45.2881 30.3585 45.0312 30.9785 45.0312 31.625C45.0312 32.2715 45.2881 32.8915 45.7452 33.3486C46.2023 33.8057 46.8223 34.0625 47.4688 34.0625ZM25.5312 41.375C26.1777 41.375 26.7977 41.1182 27.2548 40.6611C27.7119 40.204 27.9688 39.584 27.9688 38.9375C27.9688 38.291 27.7119 37.671 27.2548 37.2139C26.7977 36.7568 26.1777 36.5 25.5312 36.5C24.8848 36.5 24.2648 36.7568 23.8077 37.2139C23.3506 37.671 23.0938 38.291 23.0938 38.9375C23.0938 39.584 23.3506 40.204 23.8077 40.6611C24.2648 41.1182 24.8848 41.375 25.5312 41.375ZM32.8438 41.375C33.4902 41.375 34.1102 41.1182 34.5673 40.6611C35.0244 40.204 35.2812 39.584 35.2812 38.9375C35.2812 38.291 35.0244 37.671 34.5673 37.2139C34.1102 36.7568 33.4902 36.5 32.8438 36.5C32.1973 36.5 31.5773 36.7568 31.1202 37.2139C30.6631 37.671 30.4062 38.291 30.4062 38.9375C30.4062 39.584 30.6631 40.204 31.1202 40.6611C31.5773 41.1182 32.1973 41.375 32.8438 41.375ZM40.1562 41.375C40.8027 41.375 41.4227 41.1182 41.8798 40.6611C42.3369 40.204 42.5938 39.584 42.5938 38.9375C42.5938 38.291 42.3369 37.671 41.8798 37.2139C41.4227 36.7568 40.8027 36.5 40.1562 36.5C39.5098 36.5 38.8898 36.7568 38.4327 37.2139C37.9756 37.671 37.7188 38.291 37.7188 38.9375C37.7188 39.584 37.9756 40.204 38.4327 40.6611C38.8898 41.1182 39.5098 41.375 40.1562 41.375ZM47.4688 41.375C48.1152 41.375 48.7352 41.1182 49.1923 40.6611C49.6494 40.204 49.9062 39.584 49.9062 38.9375C49.9062 38.291 49.6494 37.671 49.1923 37.2139C48.7352 36.7568 48.1152 36.5 47.4688 36.5C46.8223 36.5 46.2023 36.7568 45.7452 37.2139C45.2881 37.671 45.0312 38.291 45.0312 38.9375C45.0312 39.584 45.2881 40.204 45.7452 40.6611C46.2023 41.1182 46.8223 41.375 47.4688 41.375ZM25.5312 48.6875C26.1777 48.6875 26.7977 48.4307 27.2548 47.9736C27.7119 47.5165 27.9688 46.8965 27.9688 46.25C27.9688 45.6035 27.7119 44.9835 27.2548 44.5264C26.7977 44.0693 26.1777 43.8125 25.5312 43.8125C24.8848 43.8125 24.2648 44.0693 23.8077 44.5264C23.3506 44.9835 23.0938 45.6035 23.0938 46.25C23.0938 46.8965 23.3506 47.5165 23.8077 47.9736C24.2648 48.4307 24.8848 48.6875 25.5312 48.6875ZM32.8438 48.6875C33.4902 48.6875 34.1102 48.4307 34.5673 47.9736C35.0244 47.5165 35.2812 46.8965 35.2812 46.25C35.2812 45.6035 35.0244 44.9835 34.5673 44.5264C34.1102 44.0693 33.4902 43.8125 32.8438 43.8125C32.1973 43.8125 31.5773 44.0693 31.1202 44.5264C30.6631 44.9835 30.4062 45.6035 30.4062 46.25C30.4062 46.8965 30.6631 47.5165 31.1202 47.9736C31.5773 48.4307 32.1973 48.6875 32.8438 48.6875ZM40.1562 48.6875C40.8027 48.6875 41.4227 48.4307 41.8798 47.9736C42.3369 47.5165 42.5938 46.8965 42.5938 46.25C42.5938 45.6035 42.3369 44.9835 41.8798 44.5264C41.4227 44.0693 40.8027 43.8125 40.1562 43.8125C39.5098 43.8125 38.8898 44.0693 38.4327 44.5264C37.9756 44.9835 37.7188 45.6035 37.7188 46.25C37.7188 46.8965 37.9756 47.5165 38.4327 47.9736C38.8898 48.4307 39.5098 48.6875 40.1562 48.6875Z" fill="white"/>
</g>
<defs>
<clipPath id="clip0_268_50">
<rect width="39" height="39" fill="white" transform="translate(17 17)"/>
</clipPath>
</defs>
</svg>
