<svg width="84" height="76" viewBox="0 0 84 76" fill="none" xmlns="http://www.w3.org/2000/svg">
<rect width="84" height="76" rx="11" fill="#FF477E"/>
<g clip-path="url(#clip0_50_114)">
<path d="M59.25 15H24.75C23.225 15 21.7625 15.6058 20.6841 16.6841C19.6058 17.7625 19 19.225 19 20.75V55.25C19 56.775 19.6058 58.2375 20.6841 59.3159C21.7625 60.3942 23.225 61 24.75 61H59.25C60.775 61 62.2375 60.3942 63.3159 59.3159C64.3942 58.2375 65 56.775 65 55.25V20.75C65 19.225 64.3942 17.7625 63.3159 16.6841C62.2375 15.6058 60.775 15 59.25 15ZM21.875 26.0889C21.875 24.729 23.163 23.625 24.75 23.625H59.25C60.837 23.625 62.125 24.729 62.125 26.0889V55.6611C62.125 57.021 60.837 58.125 59.25 58.125H24.75C23.163 58.125 21.875 57.021 21.875 55.6611V26.0889Z" fill="white"/>
<path d="M37.6875 35.125C38.45 35.125 39.1813 34.8221 39.7204 34.2829C40.2596 33.7438 40.5625 33.0125 40.5625 32.25C40.5625 31.4875 40.2596 30.7562 39.7204 30.2171C39.1813 29.6779 38.45 29.375 37.6875 29.375C36.925 29.375 36.1937 29.6779 35.6546 30.2171C35.1154 30.7562 34.8125 31.4875 34.8125 32.25C34.8125 33.0125 35.1154 33.7438 35.6546 34.2829C36.1937 34.8221 36.925 35.125 37.6875 35.125ZM46.3125 35.125C47.075 35.125 47.8063 34.8221 48.3454 34.2829C48.8846 33.7438 49.1875 33.0125 49.1875 32.25C49.1875 31.4875 48.8846 30.7562 48.3454 30.2171C47.8063 29.6779 47.075 29.375 46.3125 29.375C45.55 29.375 44.8187 29.6779 44.2796 30.2171C43.7404 30.7562 43.4375 31.4875 43.4375 32.25C43.4375 33.0125 43.7404 33.7438 44.2796 34.2829C44.8187 34.8221 45.55 35.125 46.3125 35.125ZM54.9375 35.125C55.7 35.125 56.4313 34.8221 56.9704 34.2829C57.5096 33.7438 57.8125 33.0125 57.8125 32.25C57.8125 31.4875 57.5096 30.7562 56.9704 30.2171C56.4313 29.6779 55.7 29.375 54.9375 29.375C54.175 29.375 53.4437 29.6779 52.9046 30.2171C52.3654 30.7562 52.0625 31.4875 52.0625 32.25C52.0625 33.0125 52.3654 33.7438 52.9046 34.2829C53.4437 34.8221 54.175 35.125 54.9375 35.125ZM29.0625 43.75C29.825 43.75 30.5563 43.4471 31.0954 42.9079C31.6346 42.3688 31.9375 41.6375 31.9375 40.875C31.9375 40.1125 31.6346 39.3812 31.0954 38.8421C30.5563 38.3029 29.825 38 29.0625 38C28.3 38 27.5687 38.3029 27.0296 38.8421C26.4904 39.3812 26.1875 40.1125 26.1875 40.875C26.1875 41.6375 26.4904 42.3688 27.0296 42.9079C27.5687 43.4471 28.3 43.75 29.0625 43.75ZM37.6875 43.75C38.45 43.75 39.1813 43.4471 39.7204 42.9079C40.2596 42.3688 40.5625 41.6375 40.5625 40.875C40.5625 40.1125 40.2596 39.3812 39.7204 38.8421C39.1813 38.3029 38.45 38 37.6875 38C36.925 38 36.1937 38.3029 35.6546 38.8421C35.1154 39.3812 34.8125 40.1125 34.8125 40.875C34.8125 41.6375 35.1154 42.3688 35.6546 42.9079C36.1937 43.4471 36.925 43.75 37.6875 43.75ZM46.3125 43.75C47.075 43.75 47.8063 43.4471 48.3454 42.9079C48.8846 42.3688 49.1875 41.6375 49.1875 40.875C49.1875 40.1125 48.8846 39.3812 48.3454 38.8421C47.8063 38.3029 47.075 38 46.3125 38C45.55 38 44.8187 38.3029 44.2796 38.8421C43.7404 39.3812 43.4375 40.1125 43.4375 40.875C43.4375 41.6375 43.7404 42.3688 44.2796 42.9079C44.8187 43.4471 45.55 43.75 46.3125 43.75ZM54.9375 43.75C55.7 43.75 56.4313 43.4471 56.9704 42.9079C57.5096 42.3688 57.8125 41.6375 57.8125 40.875C57.8125 40.1125 57.5096 39.3812 56.9704 38.8421C56.4313 38.3029 55.7 38 54.9375 38C54.175 38 53.4437 38.3029 52.9046 38.8421C52.3654 39.3812 52.0625 40.1125 52.0625 40.875C52.0625 41.6375 52.3654 42.3688 52.9046 42.9079C53.4437 43.4471 54.175 43.75 54.9375 43.75ZM29.0625 52.375C29.825 52.375 30.5563 52.0721 31.0954 51.5329C31.6346 50.9938 31.9375 50.2625 31.9375 49.5C31.9375 48.7375 31.6346 48.0062 31.0954 47.4671C30.5563 46.9279 29.825 46.625 29.0625 46.625C28.3 46.625 27.5687 46.9279 27.0296 47.4671C26.4904 48.0062 26.1875 48.7375 26.1875 49.5C26.1875 50.2625 26.4904 50.9938 27.0296 51.5329C27.5687 52.0721 28.3 52.375 29.0625 52.375ZM37.6875 52.375C38.45 52.375 39.1813 52.0721 39.7204 51.5329C40.2596 50.9938 40.5625 50.2625 40.5625 49.5C40.5625 48.7375 40.2596 48.0062 39.7204 47.4671C39.1813 46.9279 38.45 46.625 37.6875 46.625C36.925 46.625 36.1937 46.9279 35.6546 47.4671C35.1154 48.0062 34.8125 48.7375 34.8125 49.5C34.8125 50.2625 35.1154 50.9938 35.6546 51.5329C36.1937 52.0721 36.925 52.375 37.6875 52.375ZM46.3125 52.375C47.075 52.375 47.8063 52.0721 48.3454 51.5329C48.8846 50.9938 49.1875 50.2625 49.1875 49.5C49.1875 48.7375 48.8846 48.0062 48.3454 47.4671C47.8063 46.9279 47.075 46.625 46.3125 46.625C45.55 46.625 44.8187 46.9279 44.2796 47.4671C43.7404 48.0062 43.4375 48.7375 43.4375 49.5C43.4375 50.2625 43.7404 50.9938 44.2796 51.5329C44.8187 52.0721 45.55 52.375 46.3125 52.375Z" fill="white"/>
</g>
<defs>
<clipPath id="clip0_50_114">
<rect width="46" height="46" fill="white" transform="translate(19 15)"/>
</clipPath>
</defs>
</svg>
