<svg width="74" height="74" viewBox="0 0 74 74" fill="none" xmlns="http://www.w3.org/2000/svg">
<path d="M0 11.5236C0 5.15928 5.15928 0 11.5236 0H61.6512C68.0155 0 73.1748 5.15928 73.1748 11.5236V61.6512C73.1748 68.0155 68.0155 73.1748 61.6512 73.1748H11.5236C5.15928 73.1748 0 68.0155 0 61.6512V11.5236Z" fill="#FF477E"/>
<g clip-path="url(#clip0_257_44)">
<path fill-rule="evenodd" clip-rule="evenodd" d="M22.8671 22.8672C22.8671 21.6543 23.349 20.491 24.2066 19.6333C25.0643 18.7757 26.2276 18.2938 27.4405 18.2938H45.7342C46.9472 18.2938 48.1105 18.7757 48.9681 19.6333C49.8258 20.491 50.3077 21.6543 50.3077 22.8672V25.4581L52.4595 26.606C53.191 26.9961 53.8028 27.5777 54.2293 28.2886C54.6559 28.9995 54.8812 29.813 54.8811 30.6421V50.3078C54.8811 51.5207 54.3992 52.684 53.5416 53.5417C52.6839 54.3994 51.5206 54.8812 50.3077 54.8812H22.8671C21.6542 54.8812 20.4909 54.3994 19.6332 53.5417C18.7755 52.684 18.2937 51.5207 18.2937 50.3078V30.6421C18.2936 29.813 18.5189 28.9995 18.9454 28.2886C19.372 27.5777 19.9838 26.9961 20.7153 26.606L22.8671 25.4581V22.8672ZM22.8671 28.0512L21.7924 28.6229C21.4262 28.8179 21.12 29.1088 20.9065 29.4645C20.693 29.8202 20.5803 30.2272 20.5804 30.6421V32.5103L22.8671 33.8823V28.0512ZM25.1538 35.2544L33.729 40.3995L36.5874 38.6844L39.4458 40.3995L48.021 35.2544V22.8672C48.021 22.2608 47.78 21.6791 47.3512 21.2503C46.9223 20.8215 46.3407 20.5805 45.7342 20.5805H27.4405C26.8341 20.5805 26.2524 20.8215 25.8236 21.2503C25.3948 21.6791 25.1538 22.2608 25.1538 22.8672V35.2544ZM50.3077 33.8823L52.5944 32.5103V30.6421C52.5941 30.2276 52.4812 29.821 52.2677 29.4658C52.0542 29.1105 51.7482 28.82 51.3824 28.6252L50.3077 28.0512V33.8823ZM36.5874 25.1128C40.3925 21.2871 49.9075 27.9803 36.5874 36.5875C23.2673 27.9803 32.7823 21.2894 36.5874 25.1128ZM52.5944 35.1766L41.6685 41.7326L52.5944 48.2886V35.1766ZM52.5143 50.9092L36.5874 41.3484L20.6604 50.9069C20.792 51.3914 21.0793 51.8192 21.4781 52.1242C21.877 52.4292 22.3651 52.5945 22.8671 52.5945H50.3077C50.8097 52.5945 51.2978 52.4292 51.6966 52.1242C52.0954 51.8192 52.3828 51.3914 52.5143 50.9069V50.9092ZM20.5804 48.2863L31.5063 41.7303L20.5804 35.1766V48.2886V48.2863Z" fill="#FCFCFC"/>
</g>
<defs>
<clipPath id="clip0_257_44">
<rect width="36.5874" height="36.5874" fill="white" transform="translate(18.2937 18.2938)"/>
</clipPath>
</defs>
</svg>
