<svg width="84" height="76" viewBox="0 0 84 76" fill="none" xmlns="http://www.w3.org/2000/svg">
<rect width="84" height="76" rx="11" fill="#FF477E"/>
<path d="M42.5 35.637C47.18 30.9317 58.8828 39.1639 42.5 49.7501C26.1172 39.1639 37.82 30.9317 42.5 35.637Z" fill="#FCFCFC"/>
<path d="M44.4885 20.2187C43.9611 19.6915 43.2458 19.3953 42.5 19.3953C41.7543 19.3953 41.039 19.6915 40.5116 20.2187L21.8169 38.9106C21.5532 39.1747 21.4053 39.5326 21.4055 39.9058C21.4058 40.279 21.5543 40.6368 21.8183 40.9004C22.0824 41.1641 22.4404 41.3121 22.8135 41.3119C23.1867 41.3116 23.5445 41.1631 23.8082 40.899L25.625 39.0822V53.9687C25.625 55.0876 26.0695 56.1607 26.8607 56.9518C27.6519 57.743 28.7249 58.1875 29.8438 58.1875H55.1563C56.2752 58.1875 57.3482 57.743 58.1394 56.9518C58.9306 56.1607 59.375 55.0876 59.375 53.9687V39.0822L61.1919 40.899C61.4556 41.1631 61.8134 41.3116 62.1865 41.3119C62.5597 41.3121 62.9177 41.1641 63.1817 40.9004C63.4458 40.6368 63.5943 40.279 63.5946 39.9058C63.5948 39.5326 63.4468 39.1747 63.1832 38.9106L56.5625 32.2928V23.0312C56.5625 22.6583 56.4144 22.3006 56.1507 22.0369C55.8869 21.7731 55.5292 21.625 55.1563 21.625H52.3438C51.9708 21.625 51.6131 21.7731 51.3494 22.0369C51.0857 22.3006 50.9375 22.6583 50.9375 23.0312V26.6678L44.4885 20.2187ZM56.5625 36.2697V53.9687C56.5625 54.3417 56.4144 54.6994 56.1507 54.9631C55.8869 55.2268 55.5292 55.375 55.1563 55.375H29.8438C29.4708 55.375 29.1132 55.2268 28.8494 54.9631C28.5857 54.6994 28.4375 54.3417 28.4375 53.9687V36.2697L42.5 22.2072L56.5625 36.2697Z" fill="#FCFCFC"/>
</svg>
