<svg width="1440" height="208" viewBox="0 0 1440 208" fill="none" xmlns="http://www.w3.org/2000/svg">
<path d="M1439.71 207.999L1379.69 191.05C1319.68 173.776 1199.65 140.365 1079.68 123.447C959.701 106.855 839.777 107.569 719.919 129.977C600.059 152.059 480.268 196.648 360.356 201.424C240.445 206.201 120.419 172.79 60.4041 155.515L0.390424 138.566L7.47297e-05 8.56675L59.9618 8.2098C119.924 7.85285 239.847 7.13895 359.771 6.42505C479.694 5.71115 599.618 4.99726 719.542 4.28336C839.465 3.56946 959.389 2.85556 1079.31 2.14166C1199.24 1.42777 1319.16 0.713867 1379.12 0.356918L1439.08 -3.14713e-05L1439.71 207.999Z" fill="#FCFCFC"/>
</svg>
