<svg width="170" height="36" viewBox="0 0 170 36" fill="none" xmlns="http://www.w3.org/2000/svg">
<g clip-path="url(#clip0_395_1705)">
<path d="M17.838 7.779C14.0055 4.35933 9.48372 3.11029 6.19369 5.00976C1.53034 7.70213 1.1078 15.7007 5.24994 22.8752C7.97322 27.592 11.9915 30.7782 15.7501 31.6425" stroke="#FF477E" stroke-width="5" stroke-linecap="round" stroke-linejoin="round"/>
<path d="M13.6938 13.1251C9.55169 20.2995 9.97416 28.2981 14.6375 30.9905C19.3009 33.6829 26.4391 30.0495 30.5813 22.8751C34.7234 15.7007 34.3009 7.70212 29.6375 5.00976C24.9742 2.31737 17.8359 5.95075 13.6938 13.1251Z" stroke="#FF477E" stroke-width="5" stroke-linecap="round" stroke-linejoin="round"/>
</g>
<path d="M52.754 16.1818H49.7497C49.7284 15.9332 49.6716 15.7077 49.5793 15.5053C49.4905 15.3029 49.3662 15.1289 49.2064 14.9833C49.0502 14.8342 48.8602 14.7205 48.6365 14.6424C48.4127 14.5607 48.1588 14.5199 47.8747 14.5199C47.3776 14.5199 46.9568 14.6406 46.6123 14.8821C46.2714 15.1236 46.0122 15.4698 45.8346 15.9208C45.6606 16.3718 45.5736 16.9134 45.5736 17.5455C45.5736 18.2131 45.6624 18.7724 45.8399 19.2234C46.021 19.6708 46.282 20.0082 46.623 20.2354C46.9639 20.4592 47.374 20.571 47.8534 20.571C48.1269 20.571 48.3719 20.5373 48.5885 20.4698C48.8051 20.3988 48.9933 20.2976 49.1531 20.1662C49.3129 20.0348 49.4426 19.8768 49.542 19.6921C49.645 19.5039 49.7142 19.2926 49.7497 19.0582L52.754 19.0795C52.7185 19.5412 52.5889 20.0117 52.3651 20.4911C52.1414 20.967 51.8236 21.4073 51.4117 21.8121C51.0033 22.2134 50.4972 22.5366 49.8936 22.7816C49.2899 23.0266 48.5885 23.1491 47.7895 23.1491C46.7881 23.1491 45.8896 22.9343 45.0942 22.5046C44.3023 22.0749 43.6755 21.4428 43.2139 20.6083C42.7558 19.7738 42.5267 18.7528 42.5267 17.5455C42.5267 16.331 42.7611 15.3082 43.2298 14.4773C43.6986 13.6428 44.3307 13.0124 45.1262 12.5863C45.9216 12.1566 46.8094 11.9418 47.7895 11.9418C48.4784 11.9418 49.1123 12.0359 49.6911 12.2241C50.27 12.4123 50.7778 12.6875 51.2146 13.0497C51.6514 13.4084 52.0029 13.8505 52.2693 14.3761C52.5356 14.9016 52.6972 15.5036 52.754 16.1818ZM58.082 23.1491C57.1942 23.1491 56.4343 22.9734 55.8022 22.6218C55.1701 22.2667 54.6854 21.7731 54.348 21.141C54.0107 20.5053 53.842 19.7685 53.842 18.9304C53.842 18.0923 54.0107 17.3572 54.348 16.7251C54.6854 16.0895 55.1701 15.5959 55.8022 15.2443C56.4343 14.8892 57.1942 14.7116 58.082 14.7116C58.9698 14.7116 59.7298 14.8892 60.3619 15.2443C60.994 15.5959 61.4787 16.0895 61.8161 16.7251C62.1534 17.3572 62.3221 18.0923 62.3221 18.9304C62.3221 19.7685 62.1534 20.5053 61.8161 21.141C61.4787 21.7731 60.994 22.2667 60.3619 22.6218C59.7298 22.9734 58.9698 23.1491 58.082 23.1491ZM58.1033 20.9759C58.3519 20.9759 58.5668 20.8924 58.7479 20.7255C58.929 20.5586 59.0692 20.3207 59.1687 20.0117C59.2681 19.7028 59.3178 19.3352 59.3178 18.9091C59.3178 18.4794 59.2681 18.1119 59.1687 17.8065C59.0692 17.4975 58.929 17.2596 58.7479 17.0927C58.5668 16.9258 58.3519 16.8423 58.1033 16.8423C57.8406 16.8423 57.6151 16.9258 57.4268 17.0927C57.2386 17.2596 57.0948 17.4975 56.9954 17.8065C56.896 18.1119 56.8462 18.4794 56.8462 18.9091C56.8462 19.3352 56.896 19.7028 56.9954 20.0117C57.0948 20.3207 57.2386 20.5586 57.4268 20.7255C57.6151 20.8924 57.8406 20.9759 58.1033 20.9759ZM68.8207 19.4205V14.8182H71.761V23H68.9698V21.4446H68.8846C68.707 21.9666 68.3963 22.375 67.9524 22.6697C67.5085 22.9609 66.9812 23.1065 66.3704 23.1065C65.7987 23.1065 65.2979 22.9751 64.8683 22.7124C64.4421 22.4496 64.1101 22.0874 63.8722 21.6257C63.6378 21.1641 63.5188 20.6349 63.5153 20.0384V14.8182H66.4556V19.4205C66.4592 19.8253 66.5621 20.1431 66.7646 20.3739C66.9705 20.6048 67.2582 20.7202 67.6275 20.7202C67.8725 20.7202 68.0838 20.6687 68.2614 20.5657C68.4425 20.4592 68.581 20.31 68.6768 20.1183C68.7763 19.9229 68.8242 19.6903 68.8207 19.4205ZM73.2565 26.0682V14.8182H76.1755V16.2457H76.2394C76.346 15.9687 76.5022 15.7148 76.7082 15.484C76.9142 15.2496 77.1698 15.0632 77.4752 14.9247C77.7806 14.7827 78.1357 14.7116 78.5406 14.7116C79.0803 14.7116 79.5935 14.8555 80.08 15.1431C80.57 15.4308 80.9678 15.8835 81.2732 16.5014C81.5821 17.1193 81.7366 17.9219 81.7366 18.9091C81.7366 19.8537 81.5892 20.6367 81.2945 21.2582C81.0033 21.8796 80.6127 22.343 80.1226 22.6484C79.6361 22.9538 79.1017 23.1065 78.5193 23.1065C78.1357 23.1065 77.7931 23.0444 77.4912 22.9201C77.1929 22.7923 76.9372 22.62 76.7242 22.4034C76.5146 22.1832 76.3531 21.9347 76.2394 21.6577H76.1968V26.0682H73.2565ZM76.1329 18.9091C76.1329 19.3068 76.1844 19.6513 76.2874 19.9425C76.3939 20.2301 76.5431 20.4538 76.7348 20.6136C76.9301 20.7699 77.1627 20.848 77.4326 20.848C77.7025 20.848 77.9316 20.7717 78.1198 20.619C78.3115 20.4627 78.4571 20.2408 78.5566 19.9531C78.6595 19.6619 78.711 19.3139 78.711 18.9091C78.711 18.5043 78.6595 18.158 78.5566 17.8704C78.4571 17.5792 78.3115 17.3572 78.1198 17.2045C77.9316 17.0483 77.7025 16.9702 77.4326 16.9702C77.1627 16.9702 76.9301 17.0483 76.7348 17.2045C76.5431 17.3572 76.3939 17.5792 76.2874 17.8704C76.1844 18.158 76.1329 18.5043 76.1329 18.9091ZM85.9087 12.0909V23H82.9684V12.0909H85.9087ZM91.3273 23.1491C90.4537 23.1491 89.7009 22.9822 89.0688 22.6484C88.4403 22.3111 87.9555 21.8281 87.6146 21.1996C87.2773 20.5675 87.1086 19.8111 87.1086 18.9304C87.1086 18.0852 87.279 17.3466 87.6199 16.7145C87.9608 16.0824 88.442 15.5906 89.0635 15.239C89.6849 14.8874 90.4182 14.7116 91.2634 14.7116C91.8813 14.7116 92.4406 14.8075 92.9413 14.9993C93.442 15.1911 93.8699 15.4698 94.2251 15.8356C94.5802 16.1978 94.8536 16.6381 95.0454 17.1566C95.2371 17.6751 95.333 18.2592 95.333 18.9091V19.5909H88.0248V17.9716H92.627C92.6235 17.7372 92.5631 17.5312 92.4459 17.3537C92.3323 17.1726 92.1778 17.0323 91.9825 16.9329C91.7907 16.8299 91.5724 16.7784 91.3273 16.7784C91.0894 16.7784 90.871 16.8299 90.6721 16.9329C90.4733 17.0323 90.3135 17.1708 90.1927 17.3484C90.0756 17.5259 90.0134 17.7337 90.0063 17.9716V19.7188C90.0063 19.9815 90.0613 20.2159 90.1714 20.4219C90.2815 20.6278 90.4395 20.7894 90.6455 20.9066C90.8515 21.0238 91.1001 21.0824 91.3912 21.0824C91.5937 21.0824 91.7783 21.054 91.9452 20.9972C92.1157 20.9403 92.2613 20.8587 92.382 20.7521C92.5028 20.642 92.5915 20.5107 92.6483 20.358H95.333C95.2407 20.9261 95.0223 21.4197 94.6778 21.8388C94.3334 22.2543 93.877 22.5774 93.3089 22.8082C92.7442 23.0355 92.0837 23.1491 91.3273 23.1491ZM99.4785 12.0909H103.165L105.7 18.2699H105.828L108.363 12.0909H112.05V23H109.152V16.6932H109.067L106.638 22.9148H104.89L102.461 16.6506H102.376V23H99.4785V12.0909ZM117.438 23.1491C116.55 23.1491 115.79 22.9734 115.158 22.6218C114.526 22.2667 114.041 21.7731 113.703 21.141C113.366 20.5053 113.197 19.7685 113.197 18.9304C113.197 18.0923 113.366 17.3572 113.703 16.7251C114.041 16.0895 114.526 15.5959 115.158 15.2443C115.79 14.8892 116.55 14.7116 117.438 14.7116C118.325 14.7116 119.085 14.8892 119.717 15.2443C120.349 15.5959 120.834 16.0895 121.172 16.7251C121.509 17.3572 121.678 18.0923 121.678 18.9304C121.678 19.7685 121.509 20.5053 121.172 21.141C120.834 21.7731 120.349 22.2667 119.717 22.6218C119.085 22.9734 118.325 23.1491 117.438 23.1491ZM117.459 20.9759C117.707 20.9759 117.922 20.8924 118.103 20.7255C118.284 20.5586 118.425 20.3207 118.524 20.0117C118.624 19.7028 118.673 19.3352 118.673 18.9091C118.673 18.4794 118.624 18.1119 118.524 17.8065C118.425 17.4975 118.284 17.2596 118.103 17.0927C117.922 16.9258 117.707 16.8423 117.459 16.8423C117.196 16.8423 116.971 16.9258 116.782 17.0927C116.594 17.2596 116.45 17.4975 116.351 17.8065C116.251 18.1119 116.202 18.4794 116.202 18.9091C116.202 19.3352 116.251 19.7028 116.351 20.0117C116.45 20.3207 116.594 20.5586 116.782 20.7255C116.971 20.8924 117.196 20.9759 117.459 20.9759ZM122.871 23V14.8182H125.662V16.3736H125.747C125.918 15.8622 126.209 15.4574 126.621 15.1591C127.033 14.8608 127.523 14.7116 128.091 14.7116C128.666 14.7116 129.162 14.8643 129.577 15.1697C129.993 15.4716 130.243 15.8729 130.328 16.3736H130.413C130.552 15.8729 130.847 15.4716 131.298 15.1697C131.749 14.8643 132.278 14.7116 132.885 14.7116C133.67 14.7116 134.305 14.9638 134.792 15.468C135.282 15.9723 135.527 16.6435 135.527 17.4815V23H132.587V18.2273C132.587 17.8686 132.496 17.5881 132.315 17.3857C132.134 17.1797 131.891 17.0767 131.585 17.0767C131.283 17.0767 131.044 17.1797 130.866 17.3857C130.692 17.5881 130.605 17.8686 130.605 18.2273V23H127.793V18.2273C127.793 17.8686 127.702 17.5881 127.521 17.3857C127.34 17.1797 127.097 17.0767 126.791 17.0767C126.589 17.0767 126.415 17.1229 126.269 17.2152C126.124 17.3075 126.01 17.4407 125.928 17.6147C125.85 17.7852 125.811 17.9893 125.811 18.2273V23H122.871ZM140.898 23.1491C140.024 23.1491 139.271 22.9822 138.639 22.6484C138.011 22.3111 137.526 21.8281 137.185 21.1996C136.848 20.5675 136.679 19.8111 136.679 18.9304C136.679 18.0852 136.849 17.3466 137.19 16.7145C137.531 16.0824 138.012 15.5906 138.634 15.239C139.255 14.8874 139.989 14.7116 140.834 14.7116C141.452 14.7116 142.011 14.8075 142.512 14.9993C143.012 15.1911 143.44 15.4698 143.795 15.8356C144.15 16.1978 144.424 16.6381 144.616 17.1566C144.807 17.6751 144.903 18.2592 144.903 18.9091V19.5909H137.595V17.9716H142.197C142.194 17.7372 142.133 17.5312 142.016 17.3537C141.903 17.1726 141.748 17.0323 141.553 16.9329C141.361 16.8299 141.143 16.7784 140.898 16.7784C140.66 16.7784 140.441 16.8299 140.242 16.9329C140.044 17.0323 139.884 17.1708 139.763 17.3484C139.646 17.5259 139.584 17.7337 139.577 17.9716V19.7188C139.577 19.9815 139.632 20.2159 139.742 20.4219C139.852 20.6278 140.01 20.7894 140.216 20.9066C140.422 21.0238 140.67 21.0824 140.962 21.0824C141.164 21.0824 141.349 21.054 141.516 20.9972C141.686 20.9403 141.832 20.8587 141.952 20.7521C142.073 20.642 142.162 20.5107 142.219 20.358H144.903C144.811 20.9261 144.593 21.4197 144.248 21.8388C143.904 22.2543 143.447 22.5774 142.879 22.8082C142.315 23.0355 141.654 23.1491 140.898 23.1491ZM149.044 18.3977V23H146.103V14.8182H148.894V16.3736H148.98C149.157 15.8551 149.47 15.4485 149.917 15.1538C150.368 14.859 150.894 14.7116 151.494 14.7116C152.073 14.7116 152.575 14.8448 153.001 15.1112C153.431 15.3739 153.763 15.7362 153.997 16.1978C154.235 16.6594 154.352 17.1868 154.349 17.7798V23H151.409V18.3977C151.412 17.9929 151.309 17.6751 151.1 17.4442C150.894 17.2134 150.606 17.098 150.237 17.098C149.995 17.098 149.784 17.1513 149.603 17.2578C149.425 17.3608 149.289 17.5099 149.193 17.7053C149.097 17.897 149.047 18.1278 149.044 18.3977ZM160.68 14.8182V16.9489H155.289V14.8182H160.68ZM156.333 12.858H159.273V20.3686C159.273 20.4822 159.293 20.5781 159.332 20.6562C159.371 20.7308 159.431 20.7876 159.513 20.8267C159.595 20.8622 159.7 20.88 159.827 20.88C159.916 20.88 160.019 20.8693 160.136 20.848C160.257 20.8267 160.346 20.8089 160.403 20.7947L160.829 22.8615C160.697 22.9006 160.509 22.9485 160.264 23.0053C160.023 23.0621 159.735 23.0994 159.401 23.1172C158.727 23.1527 158.16 23.0835 157.702 22.9094C157.244 22.7319 156.9 22.4531 156.669 22.0732C156.438 21.6932 156.326 21.2173 156.333 20.6456V12.858Z" fill="#FF477E"/>
<defs>
<clipPath id="clip0_395_1705">
<rect width="36" height="36" fill="white"/>
</clipPath>
</defs>
</svg>
