<?xml version="1.0" encoding="UTF-8" standalone="no"?>
<!-- Created with Inkscape (http://www.inkscape.org/) -->

<svg
   version="1.1"
   id="svg1"
   width="880"
   height="880"
   viewBox="0 0 880 880"
   sodipodi:docname="tree-in-the-bush-publicdomainvectors.org.svg"
   inkscape:version="1.3.2 (091e20e, 2023-11-25, custom)"
   xmlns:inkscape="http://www.inkscape.org/namespaces/inkscape"
   xmlns:sodipodi="http://sodipodi.sourceforge.net/DTD/sodipodi-0.dtd"
   xmlns="http://www.w3.org/2000/svg"
   xmlns:svg="http://www.w3.org/2000/svg">
  <defs
     id="defs1">
    <clipPath
       clipPathUnits="userSpaceOnUse"
       id="clipPath3">
      <path
         d="M 0,660 H 660 V 0 H 0 Z"
         transform="translate(-346.64651,-315.77051)"
         id="path3" />
    </clipPath>
    <clipPath
       clipPathUnits="userSpaceOnUse"
       id="clipPath5">
      <path
         d="M 0,660 H 660 V 0 H 0 Z"
         transform="translate(-331.64451,-108.76461)"
         id="path5" />
    </clipPath>
    <clipPath
       clipPathUnits="userSpaceOnUse"
       id="clipPath7">
      <path
         d="M 0,660 H 660 V 0 H 0 Z"
         transform="translate(-331.64451,-163.08981)"
         id="path7" />
    </clipPath>
    <clipPath
       clipPathUnits="userSpaceOnUse"
       id="clipPath9">
      <path
         d="M 0,660 H 660 V 0 H 0 Z"
         transform="translate(-212.93601,-133.1191)"
         id="path9" />
    </clipPath>
    <clipPath
       clipPathUnits="userSpaceOnUse"
       id="clipPath11">
      <path
         d="M 0,660 H 660 V 0 H 0 Z"
         transform="translate(-424.55081,-173.0703)"
         id="path11" />
    </clipPath>
    <clipPath
       clipPathUnits="userSpaceOnUse"
       id="clipPath13">
      <path
         d="M 0,660 H 660 V 0 H 0 Z"
         transform="translate(-247.65721,-227.75491)"
         id="path13" />
    </clipPath>
    <clipPath
       clipPathUnits="userSpaceOnUse"
       id="clipPath15">
      <path
         d="M 0,660 H 660 V 0 H 0 Z"
         transform="translate(-203.8213,-218.78911)"
         id="path15" />
    </clipPath>
    <clipPath
       clipPathUnits="userSpaceOnUse"
       id="clipPath17">
      <path
         d="M 0,660 H 660 V 0 H 0 Z"
         transform="translate(-254.57131,-310.93651)"
         id="path17" />
    </clipPath>
    <clipPath
       clipPathUnits="userSpaceOnUse"
       id="clipPath19">
      <path
         d="M 0,660 H 660 V 0 H 0 Z"
         transform="translate(-199.5249,-265.65921)"
         id="path19" />
    </clipPath>
    <clipPath
       clipPathUnits="userSpaceOnUse"
       id="clipPath21">
      <path
         d="M 0,660 H 660 V 0 H 0 Z"
         transform="translate(-157.8643,-179.1924)"
         id="path21" />
    </clipPath>
    <clipPath
       clipPathUnits="userSpaceOnUse"
       id="clipPath23">
      <path
         d="M 0,660 H 660 V 0 H 0 Z"
         transform="translate(-310.60791,-302.34671)"
         id="path23" />
    </clipPath>
    <clipPath
       clipPathUnits="userSpaceOnUse"
       id="clipPath25">
      <path
         d="M 0,660 H 660 V 0 H 0 Z"
         transform="translate(-370.66801,-318.46001)"
         id="path25" />
    </clipPath>
    <clipPath
       clipPathUnits="userSpaceOnUse"
       id="clipPath27">
      <path
         d="M 0,660 H 660 V 0 H 0 Z"
         transform="translate(-470.03321,-285.40141)"
         id="path27" />
    </clipPath>
    <clipPath
       clipPathUnits="userSpaceOnUse"
       id="clipPath29">
      <path
         d="M 0,660 H 660 V 0 H 0 Z"
         transform="translate(-505.42582,-221.1592)"
         id="path29" />
    </clipPath>
    <clipPath
       clipPathUnits="userSpaceOnUse"
       id="clipPath31">
      <path
         d="M 0,660 H 660 V 0 H 0 Z"
         transform="translate(-392.30271,-326.29101)"
         id="path31" />
    </clipPath>
    <clipPath
       clipPathUnits="userSpaceOnUse"
       id="clipPath33">
      <path
         d="M 0,660 H 660 V 0 H 0 Z"
         transform="translate(-401.05471,-308.92971)"
         id="path33" />
    </clipPath>
    <clipPath
       clipPathUnits="userSpaceOnUse"
       id="clipPath35">
      <path
         d="M 0,660 H 660 V 0 H 0 Z"
         transform="translate(-478.25201,-260.04301)"
         id="path35" />
    </clipPath>
    <clipPath
       clipPathUnits="userSpaceOnUse"
       id="clipPath37">
      <path
         d="M 0,660 H 660 V 0 H 0 Z"
         transform="translate(-462.24221,-249.01461)"
         id="path37" />
    </clipPath>
    <clipPath
       clipPathUnits="userSpaceOnUse"
       id="clipPath39">
      <path
         d="M 0,660 H 660 V 0 H 0 Z"
         transform="translate(-188.9058,-241.76661)"
         id="path39" />
    </clipPath>
    <clipPath
       clipPathUnits="userSpaceOnUse"
       id="clipPath41">
      <path
         d="M 0,660 H 660 V 0 H 0 Z"
         transform="translate(-197.06841,-224.12211)"
         id="path41" />
    </clipPath>
    <clipPath
       clipPathUnits="userSpaceOnUse"
       id="clipPath43">
      <path
         d="M 0,660 H 660 V 0 H 0 Z"
         transform="translate(-408.89841,-240.7969)"
         id="path43" />
    </clipPath>
    <clipPath
       clipPathUnits="userSpaceOnUse"
       id="clipPath45">
      <path
         d="M 0,660 H 660 V 0 H 0 Z"
         transform="translate(-201.85251,-463.01421)"
         id="path45" />
    </clipPath>
    <clipPath
       clipPathUnits="userSpaceOnUse"
       id="clipPath47">
      <path
         d="M 0,660 H 660 V 0 H 0 Z"
         transform="translate(-209.14701,-479.50591)"
         id="path47" />
    </clipPath>
    <clipPath
       clipPathUnits="userSpaceOnUse"
       id="clipPath49">
      <path
         d="M 0,660 H 660 V 0 H 0 Z"
         transform="translate(-251.30811,-499.53911)"
         id="path49" />
    </clipPath>
    <clipPath
       clipPathUnits="userSpaceOnUse"
       id="clipPath51">
      <path
         d="M 0,660 H 660 V 0 H 0 Z"
         transform="translate(-242.65431,-555.70261)"
         id="path51" />
    </clipPath>
    <clipPath
       clipPathUnits="userSpaceOnUse"
       id="clipPath53">
      <path
         d="M 0,660 H 660 V 0 H 0 Z"
         transform="translate(-405.25201,-570.34231)"
         id="path53" />
    </clipPath>
    <clipPath
       clipPathUnits="userSpaceOnUse"
       id="clipPath55">
      <path
         d="M 0,660 H 660 V 0 H 0 Z"
         transform="translate(-402.72851,-541.65871)"
         id="path55" />
    </clipPath>
    <clipPath
       clipPathUnits="userSpaceOnUse"
       id="clipPath57">
      <path
         d="M 0,660 H 660 V 0 H 0 Z"
         transform="translate(-493.33591,-473.35351)"
         id="path57" />
    </clipPath>
    <clipPath
       clipPathUnits="userSpaceOnUse"
       id="clipPath59">
      <path
         d="M 0,660 H 660 V 0 H 0 Z"
         transform="translate(-176.18361,-495.81841)"
         id="path59" />
    </clipPath>
    <clipPath
       clipPathUnits="userSpaceOnUse"
       id="clipPath61">
      <path
         d="M 0,660 H 660 V 0 H 0 Z"
         transform="translate(-179.54931,-360.26761)"
         id="path61" />
    </clipPath>
    <clipPath
       clipPathUnits="userSpaceOnUse"
       id="clipPath63">
      <path
         d="M 0,660 H 660 V 0 H 0 Z"
         transform="translate(-207.01321,-371.54491)"
         id="path63" />
    </clipPath>
    <clipPath
       clipPathUnits="userSpaceOnUse"
       id="clipPath65">
      <path
         d="M 0,660 H 660 V 0 H 0 Z"
         transform="translate(-410.47661,-366.69821)"
         id="path65" />
    </clipPath>
    <clipPath
       clipPathUnits="userSpaceOnUse"
       id="clipPath67">
      <path
         d="M 0,660 H 660 V 0 H 0 Z"
         transform="translate(-255.86431,-361.41411)"
         id="path67" />
    </clipPath>
    <clipPath
       clipPathUnits="userSpaceOnUse"
       id="clipPath69">
      <path
         d="M 0,660 H 660 V 0 H 0 Z"
         transform="translate(-349.70311,-578.86672)"
         id="path69" />
    </clipPath>
    <clipPath
       clipPathUnits="userSpaceOnUse"
       id="clipPath71">
      <path
         d="M 0,660 H 660 V 0 H 0 Z"
         transform="translate(-250.26811,-475.54101)"
         id="path71" />
    </clipPath>
  </defs>
  <sodipodi:namedview
     id="namedview1"
     pagecolor="#ffffff"
     bordercolor="#000000"
     borderopacity="0.25"
     inkscape:showpageshadow="2"
     inkscape:pageopacity="0.0"
     inkscape:pagecheckerboard="0"
     inkscape:deskcolor="#d1d1d1"
     inkscape:zoom="0.67272727"
     inkscape:cx="439.25676"
     inkscape:cy="440"
     inkscape:window-width="1440"
     inkscape:window-height="830"
     inkscape:window-x="-6"
     inkscape:window-y="-6"
     inkscape:window-maximized="1"
     inkscape:current-layer="g1">
    <inkscape:page
       x="0"
       y="0"
       inkscape:label="1"
       id="page1"
       width="880"
       height="880"
       margin="145.02 25.046667 108.17733 29.437468"
       bleed="0" />
  </sodipodi:namedview>
  <g
     id="g1"
     inkscape:groupmode="layer"
     inkscape:label="1">
    <g
       id="group-MC0">
      <path
         id="path2"
         d="m 0,0 c 13.531,25.922 31.719,47.709 51.451,68.12 1.971,-5.771 6.988,-2.179 8.961,-7.949 C 28.779,42.566 12.455,6.058 4.125,-31.416 c 6.303,-39.626 15.873,-70.759 28.516,-93.906 0.31,-2.81 0.623,-5.622 0.935,-8.43 -27.713,-0.566 -55.427,-1.132 -83.138,-1.696 10.687,28.667 17.429,60.55 19.878,95.926 -10.733,41.731 -30.328,81.057 -65.787,100.792 2.392,7 8.474,2.64 10.867,9.639 20.893,-21.615 40.356,-44.501 55.881,-70.888 -0.536,29.836 -3.801,61.897 -9.971,96.322 11.288,3.231 22.577,6.461 33.868,9.69 C -4.916,66.273 -3.285,30.989 0,0"
         style="fill:#603616;fill-opacity:1;fill-rule:evenodd;stroke:none"
         transform="matrix(1.3333333,0,0,-1.3333333,462.19533,458.97267)"
         clip-path="url(#clipPath3)" />
      <path
         id="path4"
         d="M 0,0 C 170.506,0 309.57,12.202 309.57,27.162 309.57,42.125 170.506,54.327 0,54.327 -170.504,54.327 -309.566,42.125 -309.566,27.162 -309.566,12.202 -170.504,0 0,0"
         style="fill:#adda1a;fill-opacity:1;fill-rule:evenodd;stroke:none"
         transform="matrix(1.3333333,0,0,-1.3333333,442.19267,734.98053)"
         clip-path="url(#clipPath5)" />
      <path
         id="path6"
         d="m 0,0 c 135.209,0 250.152,-7.606 292.33,-18.208 -31.961,-10.314 -97.183,-17.377 -172.445,-17.377 -106.815,0 -193.404,14.229 -193.404,31.78 0,1.03 0.309,2.048 0.893,3.052 C -49.329,-0.262 -25.014,0 0,0"
         style="fill:#9ac421;fill-opacity:1;fill-rule:evenodd;stroke:none"
         transform="matrix(1.3333333,0,0,-1.3333333,442.19267,662.54693)"
         clip-path="url(#clipPath7)" />
      <path
         id="path8"
         d="m 0,0 c -18.468,0 -33.439,14.969 -33.439,33.439 0,12.593 6.965,23.56 17.252,29.262 -0.581,2.014 -0.893,4.141 -0.893,6.343 0,12.62 10.232,22.851 22.854,22.851 1.397,0 2.763,-0.125 4.09,-0.365 0.063,18.548 15.116,33.565 33.679,33.565 4.465,0 8.729,-0.872 12.628,-2.45 1.316,14.591 13.578,26.026 28.509,26.026 13.171,0 24.263,-8.897 27.601,-21.009 4.307,2.351 9.248,3.687 14.5,3.687 4.543,0 8.853,-1 12.724,-2.793 -0.142,1.15 -0.216,2.323 -0.216,3.515 0,15.811 12.818,28.626 28.628,28.626 14.879,0 27.11,-11.355 28.495,-25.875 2.857,0.87 5.892,1.338 9.035,1.338 17.136,0 31.033,-13.895 31.033,-31.032 0,-5.102 -1.232,-9.915 -3.414,-14.161 4.992,-4.415 8.432,-10.546 9.392,-17.469 2.377,0.699 4.891,1.076 7.493,1.076 14.615,0 26.463,-11.845 26.463,-26.46 0,-13.226 -9.706,-24.186 -22.381,-26.15 C 251.124,9.38 239.845,0 226.374,0 Z"
         style="fill:#769a2a;fill-opacity:1;fill-rule:evenodd;stroke:none"
         transform="matrix(1.3333333,0,0,-1.3333333,283.91467,702.50787)"
         clip-path="url(#clipPath9)" />
      <path
         id="path10"
         d="m 0,0 c -2.754,-5.476 -8.424,-9.234 -14.975,-9.234 -1.734,0 -3.404,0.263 -4.976,0.753 -2.287,-11.351 -12.317,-19.901 -24.342,-19.901 -10.393,0 -19.293,6.388 -22.994,15.45 -4.307,-5.232 -10.834,-8.568 -18.139,-8.568 -12.92,0 -23.399,10.433 -23.482,23.331 -2.84,-1.519 -6.082,-2.383 -9.528,-2.391 0.165,-1.122 0.25,-2.269 0.25,-3.438 0,-12.972 -10.513,-23.483 -23.483,-23.483 -8.593,0 -16.106,4.615 -20.2,11.504 -4.087,-2.919 -9.091,-4.635 -14.498,-4.635 -13.796,0 -24.982,11.185 -24.982,24.984 0,13.799 11.186,24.984 24.982,24.984 9.651,0 18.024,-5.472 22.185,-13.483 3.622,2.286 7.913,3.611 12.513,3.611 0.965,0 1.915,-0.06 2.85,-0.172 -0.004,0.157 -0.006,0.313 -0.006,0.47 0,11.237 9.108,20.342 20.342,20.342 10.597,0 19.301,-8.102 20.256,-18.451 3.68,2.398 8.079,3.794 12.801,3.794 9.553,0 17.774,-5.706 21.442,-13.896 3.826,4.973 9.488,8.457 15.976,9.431 -1.629,2.702 -2.566,5.867 -2.566,9.253 0,9.912 8.035,17.949 17.949,17.949 4.744,0 9.057,-1.84 12.264,-4.845 3.058,7.575 10.478,12.921 19.148,12.921 11.401,0 20.643,-9.242 20.643,-20.642 0,-3.343 -0.797,-6.498 -2.207,-9.292 1.203,0.208 2.439,0.319 3.703,0.319 11.894,0 21.539,-9.645 21.539,-21.54 0,-11.896 -9.645,-21.539 -21.539,-21.539 C 10.795,-16.414 2.299,-9.421 0,0"
         style="fill:#87b027;fill-opacity:1;fill-rule:evenodd;stroke:none"
         transform="matrix(1.3333333,0,0,-1.3333333,566.06773,649.2396)"
         clip-path="url(#clipPath11)" />
      <path
         id="path12"
         d="m 0,0 c 4.104,-4.555 10.567,-6.682 16.884,-4.951 1.672,0.457 3.214,1.153 4.601,2.039 5.204,-10.343 17.136,-15.938 28.732,-12.76 10.026,2.745 16.922,11.257 18.097,20.975 5.536,-3.908 12.712,-5.404 19.759,-3.472 12.459,3.412 19.813,16.242 16.483,28.705 3.142,-0.716 6.498,-0.69 9.824,0.211 0.135,-1.128 0.353,-2.257 0.664,-3.384 3.428,-12.509 16.346,-19.871 28.853,-16.446 8.29,2.269 14.315,8.707 16.444,16.433 4.713,-1.733 9.992,-2.068 15.207,-0.639 13.306,3.644 21.14,17.387 17.496,30.695 -3.647,13.309 -17.389,21.142 -30.695,17.498 -9.309,-2.549 -15.938,-10.038 -17.836,-18.864 -4.098,1.248 -8.586,1.392 -13.024,0.176 -0.929,-0.255 -1.828,-0.564 -2.701,-0.918 -0.039,0.15 -0.078,0.303 -0.117,0.455 C 125.7,66.589 114.511,72.968 103.675,70 93.454,67.2 87.202,57.084 89.017,46.851 84.829,48.193 80.221,48.376 75.664,47.128 66.451,44.605 60.031,36.93 58.654,28.062 c -5.001,3.789 -11.384,5.65 -17.899,4.876 0.857,3.037 0.925,6.335 0.032,9.599 -2.62,9.562 -12.493,15.19 -22.054,12.57 -4.574,-1.252 -8.247,-4.165 -10.549,-7.911 -4.949,6.498 -13.517,9.694 -21.88,7.405 -10.996,-3.012 -17.466,-14.366 -14.457,-25.362 0.886,-3.223 2.485,-6.058 4.585,-8.38 -1.217,-0.116 -2.437,-0.339 -3.656,-0.672 C -38.697,17.046 -45.45,5.196 -42.308,-6.276 -39.167,-17.749 -27.317,-24.502 -15.845,-21.36 -6.074,-18.685 0.272,-9.693 0,0"
         style="fill:#87b027;fill-opacity:1;fill-rule:evenodd;stroke:none"
         transform="matrix(1.3333333,0,0,-1.3333333,330.2096,576.3268)"
         clip-path="url(#clipPath13)" />
      <path
         id="path14"
         d="M 0,0 C 1.383,0 2.736,-0.109 4.06,-0.319 3.423,1.319 3.075,3.104 3.075,4.967 c 0,8.08 6.551,14.631 14.631,14.631 6.9,0 12.685,-4.78 14.225,-11.206 1.737,0.295 3.522,0.447 5.342,0.447 6.367,0 12.297,-1.867 17.275,-5.08 4.768,8.517 13.544,14.484 23.774,15.346 -0.459,2.013 -0.7,4.106 -0.7,6.257 0,15.492 12.56,28.051 28.049,28.051 8.959,0 16.935,-4.198 22.07,-10.734 3.086,2.394 6.961,3.818 11.17,3.818 3.188,0 6.186,-0.82 8.793,-2.256 5.248,4.744 12.203,7.635 19.836,7.635 8.047,0 15.342,-3.215 20.678,-8.428 -0.205,1.09 -0.313,2.217 -0.313,3.366 0,10.011 8.116,18.127 18.127,18.127 8.36,0 15.397,-5.663 17.49,-13.359 3.026,2.121 6.709,3.367 10.686,3.367 10.293,0 18.635,-8.343 18.635,-18.636 0,-3.304 -0.86,-6.407 -2.367,-9.096 10.171,-4.089 17.353,-14.044 17.353,-25.679 0,-15.281 -12.385,-27.668 -27.664,-27.668 -7.394,0 -14.107,2.9 -19.068,7.621 -4.385,-5.796 -11.34,-9.542 -19.166,-9.542 -0.235,0 -0.471,0.006 -0.703,0.011 -3.256,-13.03 -15.039,-22.682 -29.077,-22.682 -12.226,0 -22.738,7.317 -27.402,17.81 -5.494,-3.835 -12.176,-6.086 -19.385,-6.086 -8.353,0 -16.003,3.021 -21.911,8.032 -5.527,-6.224 -13.587,-10.149 -22.565,-10.149 -5.457,0 -10.574,1.45 -14.989,3.982 -5.2,-10.555 -16.064,-17.816 -28.626,-17.816 -8.432,0 -16.101,3.275 -21.805,8.621 C 11.161,-49.568 5.806,-51.49 0,-51.49 c -14.218,0 -25.743,11.526 -25.743,25.744 C -25.743,-11.526 -14.218,0 0,0"
         style="fill:#9ac421;fill-opacity:1;fill-rule:evenodd;stroke:none"
         transform="matrix(1.3333333,0,0,-1.3333333,271.76173,588.2812)"
         clip-path="url(#clipPath15)" />
      <path
         id="path16"
         d="m 0,0 c 3.866,-3.804 6.266,-9.096 6.266,-14.948 0,-5.853 -2.4,-11.143 -6.266,-14.948 -3.866,3.805 -6.263,9.095 -6.263,14.948 0,5.852 2.397,11.144 6.263,14.948"
         style="fill:#87b027;fill-opacity:1;fill-rule:evenodd;stroke:none"
         transform="matrix(1.3333333,0,0,-1.3333333,339.4284,465.418)"
         clip-path="url(#clipPath17)" />
      <path
         id="path18"
         d="m 0,0 c 3.884,0.864 8.098,0.23 11.701,-2.102 3.602,-2.332 5.904,-5.918 6.708,-9.814 -3.884,-0.862 -8.098,-0.231 -11.701,2.1 C 3.106,-7.483 0.802,-3.896 0,0"
         style="fill:#87b027;fill-opacity:1;fill-rule:evenodd;stroke:none"
         transform="matrix(1.3333333,0,0,-1.3333333,266.0332,525.78773)"
         clip-path="url(#clipPath19)" />
      <path
         id="path20"
         d="M 0,0 C 2.685,2.934 6.497,4.834 10.786,4.992 15.077,5.15 19.021,3.534 21.911,0.804 19.229,-2.134 15.414,-4.033 11.125,-4.19 6.834,-4.349 2.893,-2.732 0,0"
         style="fill:#87b027;fill-opacity:1;fill-rule:evenodd;stroke:none"
         transform="matrix(1.3333333,0,0,-1.3333333,210.48573,641.0768)"
         clip-path="url(#clipPath21)" />
      <path
         id="path22"
         d="m 0,0 c 5.422,0.109 10.884,-1.872 15.073,-5.96 4.186,-4.091 6.298,-9.504 6.315,-14.927 -5.422,-0.107 -10.882,1.872 -15.069,5.961 C 2.132,-10.836 0.022,-5.422 0,0"
         style="fill:#87b027;fill-opacity:1;fill-rule:evenodd;stroke:none"
         transform="matrix(1.3333333,0,0,-1.3333333,414.14387,476.87107)"
         clip-path="url(#clipPath23)" />
      <path
         id="path24"
         d="m 0,0 c 2.813,-2.769 4.559,-6.62 4.559,-10.881 0,-4.257 -1.746,-8.108 -4.559,-10.877 -2.813,2.769 -4.559,6.62 -4.559,10.877 0,4.261 1.746,8.112 4.559,10.881"
         style="fill:#87b027;fill-opacity:1;fill-rule:evenodd;stroke:none"
         transform="matrix(1.3333333,0,0,-1.3333333,494.224,455.38667)"
         clip-path="url(#clipPath25)" />
      <path
         id="path26"
         d="m 0,0 c -1.783,-3.52 -4.922,-6.354 -8.978,-7.647 -4.059,-1.293 -8.258,-0.802 -11.75,1.038 1.783,3.521 4.921,6.354 8.978,7.649 C -7.691,2.333 -3.494,1.84 0,0"
         style="fill:#87b027;fill-opacity:1;fill-rule:evenodd;stroke:none"
         transform="matrix(1.3333333,0,0,-1.3333333,626.71093,499.4648)"
         clip-path="url(#clipPath27)" />
      <path
         id="path28"
         d="m 0,0 c -2.598,-5.135 -7.174,-9.265 -13.092,-11.151 -5.916,-1.888 -12.039,-1.169 -17.131,1.513 2.6,5.134 7.176,9.266 13.094,11.152 C -11.213,3.4 -5.092,2.683 0,0"
         style="fill:#87b027;fill-opacity:1;fill-rule:evenodd;stroke:none"
         transform="matrix(1.3333333,0,0,-1.3333333,673.90107,585.12107)"
         clip-path="url(#clipPath29)" />
      <path
         id="path30"
         d="m 0,0 c 3.359,-1.078 6.301,-3.448 8.014,-6.849 1.715,-3.397 1.871,-7.171 0.738,-10.512 -3.357,1.077 -6.301,3.448 -8.014,6.847 C -0.973,-7.117 -1.131,-3.341 0,0"
         style="fill:#87b027;fill-opacity:1;fill-rule:evenodd;stroke:none"
         transform="matrix(1.3333333,0,0,-1.3333333,523.07027,444.94533)"
         clip-path="url(#clipPath31)" />
      <path
         id="path32"
         d="m 0,0 c -1.426,4.732 -1.029,10.011 1.531,14.688 2.561,4.68 6.793,7.859 11.547,9.209 C 14.504,19.165 14.107,13.886 11.547,9.208 8.986,4.531 4.754,1.351 0,0"
         style="fill:#87b027;fill-opacity:1;fill-rule:evenodd;stroke:none"
         transform="matrix(1.3333333,0,0,-1.3333333,534.7396,468.09373)"
         clip-path="url(#clipPath33)" />
      <path
         id="path34"
         d="m 0,0 c -0.609,-3.476 -2.561,-6.71 -5.693,-8.869 -3.133,-2.159 -6.852,-2.826 -10.317,-2.159 0.611,3.473 2.561,6.71 5.695,8.869 C -7.182,0 -3.461,0.667 0,0"
         style="fill:#87b027;fill-opacity:1;fill-rule:evenodd;stroke:none"
         transform="matrix(1.3333333,0,0,-1.3333333,637.66933,533.276)"
         clip-path="url(#clipPath35)" />
      <path
         id="path36"
         d="m 0,0 c 4.494,2.055 9.779,2.378 14.762,0.477 4.982,-1.901 8.709,-5.662 10.689,-10.189 -4.494,-2.055 -9.777,-2.378 -14.76,-0.476 C 5.709,-8.288 1.982,-4.527 0,0"
         style="fill:#87b027;fill-opacity:1;fill-rule:evenodd;stroke:none"
         transform="matrix(1.3333333,0,0,-1.3333333,616.32293,547.98053)"
         clip-path="url(#clipPath37)" />
      <path
         id="path38"
         d="m 0,0 c -1.243,-3.3 -1.212,-7.077 0.384,-10.533 1.599,-3.453 4.458,-5.921 7.779,-7.112 1.244,3.299 1.213,7.08 -0.384,10.534 C 6.181,-3.658 3.321,-1.189 0,0"
         style="fill:#87b027;fill-opacity:1;fill-rule:evenodd;stroke:none"
         transform="matrix(1.3333333,0,0,-1.3333333,251.8744,557.64453)"
         clip-path="url(#clipPath39)" />
      <path
         id="path40"
         d="M 0,0 C -2.821,4.058 -7.205,7.025 -12.459,7.93 -17.716,8.829 -22.838,7.492 -26.851,4.604 -24.028,0.549 -19.646,-2.421 -14.39,-3.324 -9.134,-4.225 -4.013,-2.887 0,0"
         style="fill:#87b027;fill-opacity:1;fill-rule:evenodd;stroke:none"
         transform="matrix(1.3333333,0,0,-1.3333333,262.75787,581.17053)"
         clip-path="url(#clipPath41)" />
      <path
         id="path42"
         d="m 0,0 c 7.953,0 14.4,-6.448 14.4,-14.401 0,-7.954 -6.447,-14.401 -14.4,-14.401 -7.955,0 -14.402,6.447 -14.402,14.401 C -14.402,-6.448 -7.955,0 0,0 m -45.076,-25.759 c 3.359,0 6.086,-2.725 6.086,-6.088 0,-3.362 -2.727,-6.088 -6.086,-6.088 -3.363,0 -6.09,2.726 -6.09,6.088 0,3.363 2.727,6.088 6.09,6.088 m -36.526,-7.962 c 2.85,0 5.159,-2.309 5.159,-5.157 0,-2.851 -2.309,-5.161 -5.159,-5.161 -2.849,0 -5.159,2.31 -5.159,5.161 0,2.848 2.31,5.157 5.159,5.157 m -59.61,5.387 c 5.751,0 10.411,-4.662 10.411,-10.413 0,-5.751 -4.66,-10.411 -10.411,-10.411 -5.75,0 -10.411,4.66 -10.411,10.411 0,5.751 4.661,10.413 10.411,10.413 m -56.308,-6.558 c 2.069,0 3.745,-1.676 3.745,-3.746 0,-2.069 -1.676,-3.748 -3.745,-3.748 -2.07,0 -3.748,1.679 -3.748,3.748 0,2.07 1.678,3.746 3.748,3.746 m 85.469,32.55 c 3.751,0 6.792,-3.04 6.792,-6.791 0,-3.751 -3.041,-6.791 -6.792,-6.791 -3.748,0 -6.789,3.04 -6.789,6.791 0,3.751 3.041,6.791 6.789,6.791 m 50.934,11.707 c 4.203,0 7.609,-3.407 7.609,-7.61 0,-4.203 -3.406,-7.61 -7.609,-7.61 -4.205,0 -7.611,3.407 -7.611,7.61 0,4.203 3.406,7.61 7.611,7.61"
         style="fill:#adda1a;fill-opacity:1;fill-rule:evenodd;stroke:none"
         transform="matrix(1.3333333,0,0,-1.3333333,545.19787,558.93747)"
         clip-path="url(#clipPath43)" />
      <path
         id="path44"
         d="m 0,0 c -1.449,3.694 -2.248,7.714 -2.248,11.921 0,18.012 14.601,32.614 32.613,32.614 3.304,0 6.492,-0.493 9.497,-1.406 2.163,14.448 14.621,25.529 29.673,25.529 0.407,0 0.811,-0.009 1.213,-0.027 0.785,18.02 15.639,32.389 33.853,32.389 13.357,0 24.906,-7.731 30.427,-18.959 6.971,4.545 15.295,7.192 24.237,7.192 24.535,0 44.423,-19.89 44.423,-44.424 0,-2.521 -0.212,-4.992 -0.615,-7.398 0.594,0.026 1.192,0.043 1.793,0.043 22.096,0 40.01,-17.914 40.01,-40.011 0,-3.244 -0.389,-6.4 -1.119,-9.42 0.176,0 0.353,0.005 0.531,0.005 25.672,0 46.483,-20.809 46.483,-46.482 0,-25.671 -20.811,-46.483 -46.483,-46.483 -14.443,0 -27.347,6.587 -35.871,16.923 -4.855,-6.014 -12.285,-9.863 -20.615,-9.863 -6.18,0 -11.864,2.118 -16.369,5.667 -6.256,-7.761 -15.84,-12.727 -26.582,-12.727 -4.151,0 -8.127,0.742 -11.805,2.099 -5.499,-14.961 -19.872,-25.634 -36.739,-25.634 -19.348,0 -35.415,14.044 -38.564,32.492 -5.295,-2.895 -11.372,-4.544 -17.831,-4.544 -12.572,0 -23.684,6.236 -30.419,15.783 -2.101,-0.318 -4.253,-0.485 -6.445,-0.485 -23.558,0 -42.655,19.099 -42.655,42.658 0,22.534 17.472,40.984 39.607,42.548"
         style="fill:#769a2a;fill-opacity:1;fill-rule:evenodd;stroke:none"
         transform="matrix(1.3333333,0,0,-1.3333333,269.13667,262.64773)"
         clip-path="url(#clipPath45)" />
      <path
         id="path46"
         d="m 0,0 c 7.547,0 14.448,-2.767 19.747,-7.337 5.443,6.535 13.642,10.695 22.812,10.695 3.644,0 7.129,-0.656 10.354,-1.855 4.778,4.615 11.282,7.457 18.451,7.457 0.248,0 0.492,-0.005 0.736,-0.01 3.634,14.793 16.984,25.771 32.9,25.771 6.033,0 11.695,-1.578 16.601,-4.343 4.176,11.672 15.33,20.022 28.437,20.022 10.651,0 20.012,-5.515 25.387,-13.843 3.727,9.73 13.153,16.643 24.196,16.643 14.304,0 25.9,-11.597 25.9,-25.901 0,-7.587 -3.264,-14.413 -8.463,-19.149 11.393,-2.894 19.822,-13.215 19.822,-25.509 0,-4.338 -1.049,-8.432 -2.908,-12.038 12.865,-5.173 21.951,-17.767 21.951,-32.483 0,-19.331 -15.672,-35.001 -35.002,-35.001 -4.304,0 -8.425,0.78 -12.234,2.2 -4.295,-3.641 -9.854,-5.84 -15.928,-5.84 -6.918,0 -13.168,2.853 -17.644,7.444 -6.18,-11.907 -18.623,-20.045 -32.967,-20.045 -17.949,0 -32.923,12.737 -36.377,29.666 -6.265,-7.519 -15.699,-12.304 -26.252,-12.304 -6.667,0 -12.885,1.911 -18.143,5.214 -5.232,-11.344 -16.705,-19.215 -30.015,-19.215 -18.249,0 -33.041,14.793 -33.041,33.041 0,5.949 1.574,11.533 4.327,16.357 -0.872,-0.076 -1.754,-0.119 -2.647,-0.119 -16.701,0 -30.24,13.541 -30.24,30.242 C -30.24,-13.54 -16.701,0 0,0"
         style="fill:#87b027;fill-opacity:1;fill-rule:evenodd;stroke:none"
         transform="matrix(1.3333333,0,0,-1.3333333,278.86267,240.6588)"
         clip-path="url(#clipPath47)" />
      <path
         id="path48"
         d="m 0,0 c 11.62,0 21.039,-9.419 21.039,-21.037 0,-1.046 -0.077,-2.073 -0.224,-3.077 4.459,3.498 10.079,5.585 16.187,5.585 6.672,0 12.76,-2.491 17.392,-6.592 3.037,2.107 6.724,3.341 10.701,3.341 1.467,0 2.896,-0.168 4.268,-0.486 3.931,8.471 12.509,14.346 22.462,14.346 4.654,0 9.008,-1.286 12.728,-3.519 3.287,7.327 10.647,12.431 19.201,12.431 11.619,0 21.037,-9.42 21.037,-21.039 0,-1.315 -0.122,-2.599 -0.351,-3.847 15.314,-0.499 27.576,-13.068 27.576,-28.506 0,-0.238 -0.004,-0.473 -0.008,-0.708 10.594,-1.223 18.819,-10.221 18.819,-21.142 0,-11.755 -9.532,-21.284 -21.286,-21.284 -6.31,0 -11.976,2.743 -15.872,7.106 -2.415,-11.765 -12.827,-20.614 -25.307,-20.614 -10.584,0 -19.678,6.364 -23.67,15.473 -4.619,-7.702 -13.047,-12.857 -22.68,-12.857 -12.018,0 -22.16,8.021 -25.368,19 -4.381,-4.685 -10.617,-7.614 -17.537,-7.614 -2.088,0 -4.112,0.266 -6.045,0.768 -2.421,-7.897 -9.769,-13.639 -18.458,-13.639 -10.663,0 -19.306,8.643 -19.306,19.306 0,2.768 0.585,5.4 1.636,7.778 -3.429,-2.107 -7.464,-3.323 -11.783,-3.323 -12.44,0 -22.523,10.084 -22.523,22.522 0,3.248 0.689,6.336 1.926,9.126 -1.696,2.919 -2.67,6.312 -2.67,9.934 0,10.04 7.476,18.334 17.164,19.625 -0.055,0.627 -0.086,1.262 -0.086,1.906 C -21.038,-9.419 -11.616,0 0,0"
         style="fill:#9ac421;fill-opacity:1;fill-rule:evenodd;stroke:none"
         transform="matrix(1.3333333,0,0,-1.3333333,335.07747,213.94787)"
         clip-path="url(#clipPath49)" />
      <path
         id="path50"
         d="m 0,0 c 5.363,0.807 11.035,-0.452 15.715,-3.966 4.68,-3.513 7.472,-8.608 8.193,-13.984 -5.363,-0.808 -11.035,0.453 -15.715,3.967 C 3.513,-10.47 0.721,-5.376 0,0"
         style="fill:#87b027;fill-opacity:1;fill-rule:evenodd;stroke:none"
         transform="matrix(1.3333333,0,0,-1.3333333,323.53907,139.0632)"
         clip-path="url(#clipPath51)" />
      <path
         id="path52"
         d="m 0,0 c 3.389,-3.976 5.242,-9.255 4.748,-14.869 -0.494,-5.616 -3.24,-10.49 -7.272,-13.815 -3.386,3.977 -5.242,9.257 -4.748,14.871 C -6.779,-8.199 -4.029,-3.323 0,0"
         style="fill:#87b027;fill-opacity:1;fill-rule:evenodd;stroke:none"
         transform="matrix(1.3333333,0,0,-1.3333333,540.336,119.5436)"
         clip-path="url(#clipPath53)" />
      <path
         id="path54"
         d="m 0,0 c 1.895,7.07 6.514,13.406 13.387,17.3 6.871,3.891 14.681,4.596 21.719,2.588 C 33.211,12.817 28.592,6.48 21.721,2.589 14.85,-1.306 7.039,-2.008 0,0"
         style="fill:#87b027;fill-opacity:1;fill-rule:evenodd;stroke:none"
         transform="matrix(1.3333333,0,0,-1.3333333,536.97133,157.7884)"
         clip-path="url(#clipPath55)" />
      <path
         id="path56"
         d="m 0,0 c -3.305,-6.523 -9.121,-11.774 -16.639,-14.169 -7.517,-2.4 -15.298,-1.487 -21.769,1.922 3.303,6.523 9.117,11.774 16.637,14.171 C -14.252,4.321 -6.473,3.409 0,0"
         style="fill:#87b027;fill-opacity:1;fill-rule:evenodd;stroke:none"
         transform="matrix(1.3333333,0,0,-1.3333333,657.7812,248.862)"
         clip-path="url(#clipPath57)" />
      <path
         id="path58"
         d="m 0,0 c 3.893,0.643 8.035,-0.215 11.474,-2.724 3.443,-2.509 5.527,-6.188 6.107,-10.093 -3.896,-0.643 -8.036,0.216 -11.477,2.725 C 2.663,-7.582 0.579,-3.904 0,0"
         style="fill:#87b027;fill-opacity:1;fill-rule:evenodd;stroke:none"
         transform="matrix(1.3333333,0,0,-1.3333333,234.91147,218.9088)"
         clip-path="url(#clipPath59)" />
      <path
         id="path60"
         d="m 0,0 c 4.953,-2.116 10.719,-2.322 16.095,-0.116 5.376,2.209 9.332,6.407 11.369,11.393 -4.953,2.117 -10.718,2.325 -16.095,0.116 C 5.995,9.187 2.037,4.987 0,0"
         style="fill:#87b027;fill-opacity:1;fill-rule:evenodd;stroke:none"
         transform="matrix(1.3333333,0,0,-1.3333333,239.39907,399.6432)"
         clip-path="url(#clipPath61)" />
      <path
         id="path62"
         d="m 0,0 c -6.378,-4.033 -11.2,-10.522 -12.925,-18.48 -1.725,-7.959 -0.025,-15.863 4.11,-22.174 6.38,4.032 11.2,10.522 12.927,18.48 C 5.837,-14.216 4.137,-6.314 0,0"
         style="fill:#87b027;fill-opacity:1;fill-rule:evenodd;stroke:none"
         transform="matrix(1.3333333,0,0,-1.3333333,276.0176,384.6068)"
         clip-path="url(#clipPath63)" />
      <path
         id="path64"
         d="m 0,0 c 2.814,-2.768 4.559,-6.62 4.559,-10.879 0,-4.259 -1.745,-8.111 -4.559,-10.878 -2.813,2.767 -4.559,6.619 -4.559,10.878 0,4.259 1.746,8.111 4.559,10.879"
         style="fill:#87b027;fill-opacity:1;fill-rule:evenodd;stroke:none"
         transform="matrix(1.3333333,0,0,-1.3333333,547.30213,391.06907)"
         clip-path="url(#clipPath65)" />
      <path
         id="path66"
         d="m 0,0 c 2.674,-4.72 3.527,-10.469 1.922,-16.096 -1.605,-5.627 -5.365,-10.057 -10.126,-12.656 -2.674,4.72 -3.528,10.467 -1.922,16.096 C -8.519,-7.029 -4.761,-2.601 0,0"
         style="fill:#87b027;fill-opacity:1;fill-rule:evenodd;stroke:none"
         transform="matrix(1.3333333,0,0,-1.3333333,341.1524,398.11453)"
         clip-path="url(#clipPath67)" />
      <path
         id="path68"
         d="m 0,0 c -5.086,-1.888 -9.439,-5.734 -11.836,-11.075 -2.394,-5.338 -2.373,-11.148 -0.404,-16.201 5.084,1.888 9.439,5.735 11.834,11.073 C 1.99,-10.863 1.969,-5.053 0,0"
         style="fill:#87b027;fill-opacity:1;fill-rule:evenodd;stroke:none"
         transform="matrix(1.3333333,0,0,-1.3333333,466.2708,108.17773)"
         clip-path="url(#clipPath69)" />
      <path
         id="path70"
         d="m 0,0 c 3.299,0 5.971,-2.672 5.971,-5.971 0,-3.297 -2.672,-5.971 -5.971,-5.971 -3.298,0 -5.971,2.674 -5.971,5.971 C -5.971,-2.672 -3.298,0 0,0 m 33.019,-29.27 c 4.461,0 8.077,-3.616 8.077,-8.078 0,-4.463 -3.616,-8.08 -8.077,-8.08 -4.463,0 -8.08,3.617 -8.08,8.08 0,4.462 3.617,8.078 8.08,8.078 M 14.402,-57.838 c 2.328,0 4.214,-1.889 4.214,-4.216 0,-2.327 -1.886,-4.214 -4.214,-4.214 -2.329,0 -4.215,1.887 -4.215,4.214 0,2.327 1.886,4.216 4.215,4.216 m 57.023,37.934 c 3.17,0 5.74,-2.57 5.74,-5.74 0,-3.17 -2.57,-5.74 -5.74,-5.74 -3.17,0 -5.742,2.57 -5.742,5.74 0,3.17 2.572,5.74 5.742,5.74 m 38.166,-12.41 c 6.014,0 10.889,-4.874 10.889,-10.889 0,-6.014 -4.875,-10.889 -10.889,-10.889 -6.013,0 -10.888,4.875 -10.888,10.889 0,6.015 4.875,10.889 10.888,10.889 m 33.369,22.246 c 1.551,0 2.811,-1.257 2.811,-2.81 0,-1.553 -1.26,-2.81 -2.811,-2.81 -1.55,0 -2.81,1.257 -2.81,2.81 0,1.553 1.26,2.81 2.81,2.81 m -19.201,8.429 c 2.197,0 3.981,-1.782 3.981,-3.981 0,-2.198 -1.784,-3.981 -3.981,-3.981 -2.199,0 -3.982,1.783 -3.982,3.981 0,2.199 1.783,3.981 3.982,3.981 m 25.172,-36.763 c 3.686,0 6.674,-2.988 6.674,-6.674 0,-3.687 -2.988,-6.674 -6.674,-6.674 -3.685,0 -6.674,2.987 -6.674,6.674 0,3.686 2.989,6.674 6.674,6.674 m -157.126,1.639 c 2.521,0 4.566,-2.045 4.566,-4.568 0,-2.521 -2.045,-4.566 -4.566,-4.566 -2.523,0 -4.567,2.045 -4.567,4.566 0,2.523 2.044,4.568 4.567,4.568"
         style="fill:#adda1a;fill-opacity:1;fill-rule:evenodd;stroke:none"
         transform="matrix(1.3333333,0,0,-1.3333333,333.6908,245.94533)"
         clip-path="url(#clipPath71)" />
    </g>
  </g>
</svg>
